<svg width="26" height="24" viewBox="0 0 26 24" fill="none" xmlns="http://www.w3.org/2000/svg">
<path d="M13 0C12.7348 0 12.4804 0.105357 12.2929 0.292893C12.1054 0.48043 12 0.734784 12 1C12 1.26522 12.1054 1.51957 12.2929 1.70711C12.4804 1.89464 12.7348 2 13 2C13.2652 2 13.5196 1.89464 13.7071 1.70711C13.8946 1.51957 14 1.26522 14 1C14 0.734784 13.8946 0.48043 13.7071 0.292893C13.5196 0.105357 13.2652 0 13 0ZM4 2C3.73478 2 3.48043 2.10536 3.29289 2.29289C3.10536 2.48043 3 2.73478 3 3C3 3.26522 3.10536 3.51957 3.29289 3.70711C3.48043 3.89464 3.73478 4 4 4C4.26522 4 4.51957 3.89464 4.70711 3.70711C4.89464 3.51957 5 3.26522 5 3C5 2.73478 4.89464 2.48043 4.70711 2.29289C4.51957 2.10536 4.26522 2 4 2ZM22 2C21.7348 2 21.4804 2.10536 21.2929 2.29289C21.1054 2.48043 21 2.73478 21 3C21 3.26522 21.1054 3.51957 21.2929 3.70711C21.4804 3.89464 21.7348 4 22 4C22.2652 4 22.5196 3.89464 22.7071 3.70711C22.8946 3.51957 23 3.26522 23 3C23 2.73478 22.8946 2.48043 22.7071 2.29289C22.5196 2.10536 22.2652 2 22 2ZM9.69922 4C8.23922 4 7.01494 5.0295 6.71094 6.5625L5.04688 18.5977C4.94487 19.3397 5.52053 20 6.26953 20H19.7305C20.4835 20 21.0602 19.3329 20.9512 18.5879L19.1953 6.59961C19.0443 5.09361 17.8268 4 16.3008 4H9.69922ZM9.56641 6C10.0914 6 10.4958 6.46242 10.4238 6.98242L9.00586 17.25C8.94686 17.68 8.57753 18 8.14453 18C7.61753 18 7.21216 17.5337 7.28516 17.0117L8.71094 6.74609C8.76994 6.31809 9.13541 6 9.56641 6ZM2 8C1.73478 8 1.48043 8.10536 1.29289 8.29289C1.10536 8.48043 1 8.73478 1 9C1 9.26522 1.10536 9.51957 1.29289 9.70711C1.48043 9.89464 1.73478 10 2 10C2.26522 10 2.51957 9.89464 2.70711 9.70711C2.89464 9.51957 3 9.26522 3 9C3 8.73478 2.89464 8.48043 2.70711 8.29289C2.51957 8.10536 2.26522 8 2 8ZM24 8C23.7348 8 23.4804 8.10536 23.2929 8.29289C23.1054 8.48043 23 8.73478 23 9C23 9.26522 23.1054 9.51957 23.2929 9.70711C23.4804 9.89464 23.7348 10 24 10C24.2652 10 24.5196 9.89464 24.7071 9.70711C24.8946 9.51957 25 9.26522 25 9C25 8.73478 24.8946 8.48043 24.7071 8.29289C24.5196 8.10536 24.2652 8 24 8ZM1 15C0.734784 15 0.48043 15.1054 0.292893 15.2929C0.105357 15.4804 0 15.7348 0 16C0 16.2652 0.105357 16.5196 0.292893 16.7071C0.48043 16.8946 0.734784 17 1 17C1.26522 17 1.51957 16.8946 1.70711 16.7071C1.89464 16.5196 2 16.2652 2 16C2 15.7348 1.89464 15.4804 1.70711 15.2929C1.51957 15.1054 1.26522 15 1 15ZM25 15C24.7348 15 24.4804 15.1054 24.2929 15.2929C24.1054 15.4804 24 15.7348 24 16C24 16.2652 24.1054 16.5196 24.2929 16.7071C24.4804 16.8946 24.7348 17 25 17C25.2652 17 25.5196 16.8946 25.7071 16.7071C25.8946 16.5196 26 16.2652 26 16C26 15.7348 25.8946 15.4804 25.7071 15.2929C25.5196 15.1054 25.2652 15 25 15ZM4 22C3.86749 21.9981 3.73593 22.0226 3.61296 22.072C3.48999 22.1214 3.37807 22.1948 3.2837 22.2878C3.18933 22.3809 3.11439 22.4918 3.06324 22.614C3.0121 22.7363 2.98576 22.8675 2.98576 23C2.98576 23.1325 3.0121 23.2637 3.06324 23.386C3.11439 23.5082 3.18933 23.6191 3.2837 23.7122C3.37807 23.8052 3.48999 23.8786 3.61296 23.928C3.73593 23.9774 3.86749 24.0019 4 24H22C22.1325 24.0019 22.2641 23.9774 22.387 23.928C22.51 23.8786 22.6219 23.8052 22.7163 23.7122C22.8107 23.6191 22.8856 23.5082 22.9368 23.386C22.9879 23.2637 23.0142 23.1325 23.0142 23C23.0142 22.8675 22.9879 22.7363 22.9368 22.614C22.8856 22.4918 22.8107 22.3809 22.7163 22.2878C22.6219 22.1948 22.51 22.1214 22.387 22.072C22.2641 22.0226 22.1325 21.9981 22 22H4Z" fill="#E01212"/>
</svg>
