<svg width="241" height="95" viewBox="0 0 241 95" fill="none" xmlns="http://www.w3.org/2000/svg">
<g filter="url(#filter0_d)">
<path d="M223.583 67.5624C223.583 68.3553 223.428 69.1404 223.128 69.8729C222.828 70.6054 222.388 71.2708 221.833 71.8312C221.279 72.3916 220.62 72.8359 219.896 73.1387C219.171 73.4416 218.395 73.5971 217.611 73.5962H22.1869C20.603 73.5979 19.0833 72.9632 17.962 71.8317C16.8407 70.7001 16.2096 69.1645 16.2075 67.5624V19.4441C16.2096 17.8413 16.8404 16.3048 17.9615 15.172C19.0826 14.0392 20.6023 13.4028 22.1869 13.4023H217.609C218.394 13.4023 219.17 13.5586 219.895 13.8623C220.62 14.1659 221.278 14.611 221.833 15.172C222.387 15.7331 222.827 16.3991 223.127 17.1321C223.427 17.8652 223.581 18.6508 223.581 19.4441L223.583 67.5624Z" fill="white"/>
<path d="M223.583 67.5624C223.583 68.3553 223.428 69.1404 223.128 69.8729C222.828 70.6054 222.388 71.2708 221.833 71.8312C221.279 72.3916 220.62 72.8359 219.896 73.1387C219.171 73.4416 218.395 73.5971 217.611 73.5962H22.1869C20.603 73.5979 19.0833 72.9632 17.962 71.8317C16.8407 70.7001 16.2096 69.1645 16.2075 67.5624V19.4441C16.2096 17.8413 16.8404 16.3048 17.9615 15.172C19.0826 14.0392 20.6023 13.4028 22.1869 13.4023H217.609C218.394 13.4023 219.17 13.5586 219.895 13.8623C220.62 14.1659 221.278 14.611 221.833 15.172C222.387 15.7331 222.827 16.3991 223.127 17.1321C223.427 17.8652 223.581 18.6508 223.581 19.4441L223.583 67.5624Z" fill="black"/>
<path d="M61.7464 43.1687C61.7012 38.0911 65.8568 35.6208 66.0468 35.5058C63.6933 32.0352 60.0456 31.561 58.7637 31.5232C55.7 31.197 52.7282 33.3774 51.1676 33.3774C49.5757 33.3774 47.1724 31.5547 44.5822 31.6082C41.2491 31.6602 38.1309 33.6122 36.4207 36.6433C32.8913 42.8237 35.5236 51.906 38.905 56.9017C40.5965 59.3499 42.573 62.0801 45.1601 61.984C47.6911 61.88 48.6365 60.3534 51.6909 60.3534C54.7172 60.3534 55.605 61.984 58.2435 61.9225C60.9599 61.88 62.67 59.4649 64.3023 56.9962C66.2571 54.1935 67.0421 51.4302 67.0732 51.2884C67.0109 51.2664 61.7994 49.253 61.7464 43.1687ZM56.7623 28.2368C58.1236 26.5149 59.055 24.1722 58.7964 21.7949C56.8261 21.8831 54.3621 23.1734 52.9432 24.8575C51.6878 26.3416 50.5663 28.774 50.856 31.0616C53.0693 31.2286 55.3418 29.932 56.7623 28.2368Z" fill="white"/>
<path d="M217.61 12H112.935L153.934 75H217.61C219.562 74.9983 221.433 74.214 222.814 72.8188C224.195 71.4237 224.972 69.5317 224.976 67.5577V19.4455C224.972 17.471 224.195 15.5785 222.814 14.1828C221.434 12.787 219.562 12.0021 217.61 12V12Z" fill="url(#paint0_linear)"/>
<path d="M98.4058 61.6319H94.8686L92.931 55.4734H86.1962L84.3505 61.6319H80.9067L87.5808 40.6658H91.7021L98.4058 61.6319ZM92.3469 52.8897L90.5947 47.415C90.4093 46.8558 90.0604 45.5387 89.5496 43.4654H89.4873C89.2817 44.3571 88.953 45.6742 88.5029 47.415L86.7803 52.8897H92.3469ZM115.536 53.887C115.536 56.4581 114.846 58.4904 113.464 59.9824C112.227 61.3105 110.69 61.9737 108.857 61.9737C106.877 61.9737 105.454 61.2601 104.589 59.8295V67.7619H101.269V51.4828C101.269 49.868 101.227 48.2122 101.146 46.5139H104.066L104.251 48.9101H104.314C105.421 47.1047 107.102 46.2019 109.357 46.2019C111.12 46.2019 112.592 46.9062 113.769 48.3162C114.945 49.7294 115.536 51.5852 115.536 53.887ZM112.153 54.0099C112.153 52.5384 111.826 51.3253 111.168 50.369C110.45 49.3749 109.486 48.8771 108.278 48.8771C107.458 48.8771 106.714 49.1543 106.049 49.701C105.382 50.2524 104.946 50.9724 104.742 51.8641C104.651 52.1976 104.599 52.5408 104.588 52.8866V55.4088C104.588 56.5069 104.921 57.4349 105.588 58.1942C106.254 58.9504 107.12 59.3301 108.186 59.3301C109.436 59.3301 110.41 58.8402 111.106 57.8681C111.804 56.8929 112.153 55.6074 112.153 54.0099ZM132.726 53.887C132.726 56.4581 132.036 58.4904 130.655 59.9824C129.417 61.3105 127.881 61.9737 126.046 61.9737C124.066 61.9737 122.643 61.2601 121.778 59.8295V67.7619H118.458V51.4828C118.458 49.868 118.416 48.2122 118.335 46.5139H121.255L121.44 48.9101H121.503C122.609 47.1047 124.289 46.2019 126.546 46.2019C128.308 46.2019 129.779 46.9062 130.96 48.3162C132.134 49.7294 132.726 51.5852 132.726 53.887ZM129.342 54.0099C129.342 52.5384 129.013 51.3253 128.356 50.369C127.638 49.3749 126.677 48.8771 125.468 48.8771C124.649 48.8771 123.904 49.1543 123.236 49.701C122.57 50.2524 122.135 50.9724 121.931 51.8641C121.83 52.28 121.775 52.6187 121.775 52.8866V55.4088C121.775 56.5069 122.11 57.4349 122.774 58.1942C123.44 58.9489 124.306 59.3301 125.375 59.3301C126.627 59.3301 127.6 58.8402 128.295 57.8681C128.993 56.8929 129.342 55.6074 129.342 54.0099ZM151.947 55.7507C151.947 57.5357 151.33 58.9867 150.104 60.1068C148.755 61.3294 146.872 61.9422 144.458 61.9422C142.227 61.9422 140.439 61.5074 139.091 60.6362L139.858 57.8366C141.315 58.7094 142.914 59.1442 144.656 59.1442C145.908 59.1442 146.881 58.8575 147.576 58.2888C148.272 57.7184 148.624 56.9559 148.624 56.0044C148.624 55.152 148.333 54.4384 147.761 53.857C147.187 53.2773 146.237 52.7369 144.902 52.2406C141.273 50.8716 139.457 48.8692 139.457 46.235C139.457 44.5146 140.098 43.1062 141.379 42.005C142.659 40.9053 144.357 40.3555 146.469 40.3555C148.355 40.3555 149.926 40.6879 151.174 41.3512L150.341 44.0893C149.166 43.4465 147.841 43.1251 146.358 43.1251C145.187 43.1251 144.268 43.4166 143.611 43.9963C143.058 44.5146 142.777 45.1464 142.777 45.8963C142.777 46.7234 143.097 47.4103 143.732 47.9491C144.283 48.4454 145.29 48.9858 146.744 49.5655C148.529 50.2934 149.841 51.141 150.68 52.1146C151.526 53.0882 151.947 54.3029 151.947 55.7507ZM162.954 49.0346H159.293V56.3746C159.293 58.2415 159.938 59.1726 161.231 59.1726C161.824 59.1726 162.317 59.1222 162.706 59.0166L162.798 61.5673C162.144 61.8146 161.282 61.9391 160.216 61.9391C158.904 61.9391 157.879 61.5342 157.139 60.7244C156.403 59.9146 156.032 58.5582 156.032 56.6487V49.0283H153.851V46.5076H156.032V43.7395L159.293 42.7438V46.5076H162.954V49.0346ZM179.436 53.9484C179.436 56.2722 178.778 58.1801 177.467 59.672C176.095 61.2081 174.269 61.9737 171.994 61.9737C169.798 61.9737 168.052 61.238 166.749 59.7681C165.447 58.2951 164.796 56.4392 164.796 54.2005C164.796 51.8578 165.469 49.9389 166.81 48.447C168.154 46.9534 169.964 46.2067 172.24 46.2067C174.433 46.2067 176.194 46.944 177.528 48.4154C178.802 49.8428 179.436 51.6861 179.436 53.9484ZM175.993 54.0256C175.993 52.6408 175.698 51.4529 175.104 50.4588C174.408 49.2583 173.411 48.6581 172.12 48.6581C170.79 48.6581 169.77 49.2583 169.075 50.4588C168.48 51.4529 168.184 52.6613 168.184 54.0886C168.184 55.475 168.48 56.6661 169.075 57.657C169.793 58.8575 170.794 59.4577 172.092 59.4577C173.361 59.4577 174.357 58.8449 175.076 57.6271C175.687 56.6093 175.993 55.4136 175.993 54.0256ZM190.234 49.4678C189.889 49.4048 189.538 49.3737 189.187 49.3749C188.019 49.3749 187.116 49.8192 186.48 50.714C185.929 51.5017 185.652 52.4974 185.652 53.6995V61.6319H182.331V51.2749C182.334 49.6879 182.302 48.101 182.235 46.5155H185.127L185.248 49.408H185.34C185.692 48.4139 186.244 47.612 187.001 47.0117C187.694 46.4872 188.535 46.2032 189.401 46.2019C189.708 46.2019 189.985 46.224 190.231 46.2634L190.234 49.4678ZM205.085 53.3576C205.094 53.8682 205.053 54.3784 204.964 54.8811H195.002C195.039 56.3746 195.522 57.5184 196.447 58.3061C197.287 59.0087 198.372 59.3616 199.706 59.3616C201.181 59.3616 202.526 59.1253 203.737 58.648L204.257 60.978C202.843 61.6019 201.173 61.9123 199.246 61.9123C196.928 61.9123 195.109 61.2222 193.785 59.8453C192.465 58.4668 191.803 56.6141 191.803 54.2934C191.803 52.0153 192.418 50.1169 193.65 48.6029C194.94 46.9865 196.682 46.1783 198.875 46.1783C201.03 46.1783 202.66 46.9865 203.768 48.6029C204.645 49.8838 205.085 51.4718 205.085 53.3576ZM201.919 52.4864C201.942 51.4891 201.724 50.6305 201.274 49.9042C200.699 48.9684 199.815 48.5021 198.629 48.5021C197.544 48.5021 196.659 48.9574 195.986 49.8712C195.433 50.5974 195.105 51.4702 195.003 52.4832L201.919 52.4864Z" fill="white"/>
<path d="M85.2388 33.2536C84.3152 33.2536 83.5161 33.2079 82.8511 33.1307V22.9944C83.7813 22.849 84.7212 22.7774 85.6624 22.7801C89.4707 22.7801 91.2245 24.6754 91.2245 27.7648C91.2245 31.3284 89.1529 33.2536 85.2388 33.2536ZM85.7964 24.0799C85.2824 24.0799 84.8447 24.1114 84.4818 24.187V31.8924C84.6781 31.9239 85.055 31.9381 85.5846 31.9381C88.0798 31.9381 89.5002 30.5013 89.5002 27.8105C89.5002 25.4111 88.2153 24.0799 85.7964 24.0799ZM96.6899 33.3308C94.5436 33.3308 93.1527 31.7097 93.1527 29.5088C93.1527 27.215 94.5732 25.5797 96.8114 25.5797C98.9265 25.5797 100.349 27.1236 100.349 29.3875C100.349 31.7097 98.8829 33.3308 96.6899 33.3308ZM96.7522 26.7864C95.5731 26.7864 94.8177 27.9019 94.8177 29.4615C94.8177 30.9913 95.5887 32.1067 96.7366 32.1067C97.8845 32.1067 98.6555 30.9141 98.6555 29.43C98.6555 27.9176 97.9001 26.7864 96.7522 26.7864ZM112.588 25.7325L110.29 33.1622H108.794L107.842 29.9357C107.605 29.1465 107.408 28.3457 107.252 27.5364H107.22C107.101 28.3461 106.873 29.1575 106.632 29.9357L105.619 33.1622H104.107L101.945 25.7325H103.623L104.454 29.2646C104.651 30.1059 104.816 30.8999 104.953 31.6498H104.984C105.104 31.0244 105.3 30.2429 105.588 29.2804L106.632 25.7341H107.962L108.96 29.2047C109.202 30.046 109.398 30.8715 109.551 31.6514H109.594C109.7 30.8873 109.867 30.0759 110.093 29.2047L110.985 25.7341L112.588 25.7325ZM121.045 33.1622H119.413V28.896C119.413 27.582 118.915 26.9235 117.932 26.9235C116.964 26.9235 116.299 27.7648 116.299 28.7431V33.1622H114.667V27.8562C114.667 27.1992 114.652 26.495 114.606 25.7309H116.042L116.119 26.8778H116.164C116.603 26.0838 117.494 25.5797 118.492 25.5797C120.034 25.5797 121.047 26.7723 121.047 28.7132L121.045 33.1622ZM125.547 33.1622H123.913V22.3232H125.547V33.1622ZM131.498 33.3308C129.353 33.3308 127.961 31.7097 127.961 29.5088C127.961 27.215 129.381 25.5797 131.618 25.5797C133.735 25.5797 135.155 27.1236 135.155 29.3875C135.157 31.7097 133.689 33.3308 131.498 33.3308ZM131.559 26.7864C130.38 26.7864 129.624 27.9019 129.624 29.4615C129.624 30.9913 130.397 32.1067 131.542 32.1067C132.691 32.1067 133.46 30.9141 133.46 29.43C133.462 27.9176 132.708 26.7864 131.559 26.7864ZM141.591 33.1622L141.473 32.3068H141.429C140.93 32.9952 140.203 33.3308 139.281 33.3308C137.965 33.3308 137.03 32.3981 137.03 31.1441C137.03 29.3103 138.602 28.3619 141.323 28.3619V28.2248C141.323 27.2465 140.811 26.7565 139.798 26.7565C139.074 26.7565 138.438 26.9408 137.879 27.3079L137.547 26.2224C138.227 25.7939 139.074 25.5797 140.069 25.5797C141.988 25.5797 142.957 26.6037 142.957 28.6533V31.3899C142.957 32.1398 142.99 32.7211 143.063 33.1638L141.591 33.1622ZM141.367 29.4615C139.554 29.4615 138.644 29.9058 138.644 30.9598C138.644 31.7396 139.113 32.1209 139.764 32.1209C140.594 32.1209 141.367 31.4797 141.367 30.6084V29.4615ZM150.883 33.1622L150.807 31.9696H150.762C150.293 32.8708 149.505 33.3308 148.404 33.3308C146.633 33.3308 145.321 31.7554 145.321 29.5387C145.321 27.215 146.681 25.5781 148.538 25.5781C149.52 25.5781 150.217 25.9137 150.609 26.5879H150.642V22.3232H152.276V31.1598C152.276 31.8782 152.293 32.551 152.336 33.1622H150.883ZM150.642 28.7904C150.642 27.7506 149.961 26.8636 148.922 26.8636C147.712 26.8636 146.972 27.9491 146.972 29.4773C146.972 30.9755 147.74 32.0011 148.89 32.0011C149.916 32.0011 150.642 31.0984 150.642 30.0287V28.7904ZM162.635 33.3308C160.49 33.3308 159.099 31.7097 159.099 29.5088C159.099 27.215 160.52 25.5797 162.756 25.5797C164.873 25.5797 166.294 27.1236 166.294 29.3875C166.295 31.7097 164.83 33.3308 162.635 33.3308ZM162.696 26.7864C161.518 26.7864 160.763 27.9019 160.763 29.4615C160.763 30.9913 161.534 32.1067 162.68 32.1067C163.83 32.1067 164.599 30.9141 164.599 29.43C164.602 27.9176 163.847 26.7864 162.696 26.7864ZM175.072 33.1622H173.438V28.896C173.438 27.582 172.94 26.9235 171.957 26.9235C170.99 26.9235 170.326 27.7648 170.326 28.7431V33.1622H168.692V27.8562C168.692 27.1992 168.677 26.495 168.631 25.7309H170.068L170.144 26.8778H170.189C170.627 26.0838 171.519 25.5781 172.516 25.5781C174.058 25.5781 175.072 26.7707 175.072 28.7116V33.1622ZM186.054 26.9708H184.258V30.5785C184.258 31.497 184.573 31.9554 185.208 31.9554C185.497 31.9554 185.738 31.9239 185.933 31.8782L185.978 33.1323C185.662 33.2552 185.238 33.3166 184.712 33.3166C183.425 33.3166 182.656 32.5982 182.656 30.7172V26.9708H181.584V25.7325H182.656V24.3713L184.258 23.8813V25.7309H186.054V26.9708ZM194.695 33.1622H193.065V28.9275C193.065 27.5978 192.568 26.9251 191.584 26.9251C190.738 26.9251 189.95 27.5064 189.95 28.6833V33.1622H188.319V22.3232H189.95V26.7864H189.982C190.496 25.9767 191.241 25.5781 192.191 25.5781C193.745 25.5781 194.695 26.8006 194.695 28.7431V33.1622ZM203.549 29.8444H198.65C198.681 31.2512 199.602 32.0452 200.965 32.0452C201.689 32.0452 202.356 31.9224 202.944 31.6939L203.198 32.8408C202.503 33.1465 201.686 33.2993 200.734 33.2993C198.437 33.2993 197.077 31.831 197.077 29.5545C197.077 27.2764 198.469 25.5639 200.55 25.5639C202.427 25.5639 203.605 26.9708 203.605 29.096C203.615 29.3468 203.596 29.598 203.549 29.8444ZM202.052 28.6675C202.052 27.5206 201.48 26.7108 200.437 26.7108C199.499 26.7108 198.758 27.5364 198.652 28.6675H202.052Z" fill="white"/>
</g>
<defs>
<filter id="filter0_d" x="0.895645" y="0.771292" width="239.392" height="93.6237" filterUnits="userSpaceOnUse" color-interpolation-filters="sRGB">
<feFlood flood-opacity="0" result="BackgroundImageFix"/>
<feColorMatrix in="SourceAlpha" type="matrix" values="0 0 0 0 0 0 0 0 0 0 0 0 0 0 0 0 0 0 127 0" result="hardAlpha"/>
<feOffset dy="4.08317"/>
<feGaussianBlur stdDeviation="7.65594"/>
<feColorMatrix type="matrix" values="0 0 0 0 0.372549 0 0 0 0 0.372549 0 0 0 0 0.372549 0 0 0 0.15 0"/>
<feBlend mode="normal" in2="BackgroundImageFix" result="effect1_dropShadow"/>
<feBlend mode="normal" in="SourceGraphic" in2="effect1_dropShadow" result="shape"/>
</filter>
<linearGradient id="paint0_linear" x1="168.954" y1="75.1673" x2="168.954" y2="-152.041" gradientUnits="userSpaceOnUse">
<stop stop-color="#1A1A1A" stop-opacity="0.1"/>
<stop offset="0.123" stop-color="#212121" stop-opacity="0.151"/>
<stop offset="0.308" stop-color="#353535" stop-opacity="0.227"/>
<stop offset="0.532" stop-color="#575757" stop-opacity="0.318"/>
<stop offset="0.783" stop-color="#858585" stop-opacity="0.421"/>
<stop offset="1" stop-color="#B3B3B3" stop-opacity="0.51"/>
</linearGradient>
</defs>
</svg>
