<svg width="32" height="32" viewBox="0 0 32 32" fill="none" xmlns="http://www.w3.org/2000/svg">
<path d="M15.1905 15.466C14.923 15.466 14.6715 15.362 14.4825 15.173L13.087 13.777L13.794 13.07L15.1895 14.466L18.218 11.534L18.9135 12.2525L15.8925 15.179C15.7095 15.362 15.458 15.466 15.1905 15.466Z" fill="url(#paint0_linear)"/>
<path d="M21.5 5.5H18.5V6H21.5V5.5Z" fill="url(#paint1_linear)"/>
<path d="M13.5 5.5H10V6H13.5V5.5Z" fill="url(#paint2_linear)"/>
<path d="M24 6H22.5V5.5C22.5 4.9485 22.0515 4.5 21.5 4.5H18.288C17.901 3.6185 17.0225 3 16 3C14.9775 3 14.099 3.6185 13.712 4.5H10C9.4485 4.5 9 4.9485 9 5.5V6H8C6.897 6 6 6.897 6 8V27C6 28.103 6.897 29 8 29H24C25.103 29 26 28.103 26 27V8C26 6.897 25.103 6 24 6ZM18.5 5.5H21.5V6H18.5V5.5ZM14.5 5.5C14.5 4.673 15.173 4 16 4C16.827 4 17.5 4.673 17.5 5.5L17.501 9H14.5V5.5ZM14.5 10H17.5C18.0515 10 18.5 9.5515 18.5 9H23V23V24H9V23V9H13.5C13.5 9.5515 13.9485 10 14.5 10ZM23 25V26H9V25H23ZM10 5.5H13.5V6H10V5.5ZM25 27C25 27.5515 24.5515 28 24 28H8C7.4485 28 7 27.5515 7 27V8C7 7.4485 7.4485 7 8 7H13.5V8H9C8.4485 8 8 8.4485 8 9V23V24V26C8 26.5515 8.4485 27 9 27H23C23.5515 27 24 26.5515 24 26V24V23V9C24 8.4485 23.5515 8 23 8H18.5V7H24C24.5515 7 25 7.4485 25 8V27Z" fill="url(#paint3_linear)"/>
<path d="M21.5 17.5H10.5V18.5H21.5V17.5Z" fill="url(#paint4_linear)"/>
<path d="M18.5 21.5H13.5V22.5H18.5V21.5Z" fill="url(#paint5_linear)"/>
<path d="M20 19.5H12V20.5H20V19.5Z" fill="url(#paint6_linear)"/>
<defs>
<linearGradient id="paint0_linear" x1="16.0005" y1="11.1875" x2="16.0005" y2="15.467" gradientUnits="userSpaceOnUse">
<stop stop-color="#6DC7FF"/>
<stop offset="1" stop-color="#E6ABFF"/>
</linearGradient>
<linearGradient id="paint1_linear" x1="20" y1="5.1875" x2="20" y2="6.3145" gradientUnits="userSpaceOnUse">
<stop stop-color="#6DC7FF"/>
<stop offset="1" stop-color="#E6ABFF"/>
</linearGradient>
<linearGradient id="paint2_linear" x1="11.75" y1="5.1875" x2="11.75" y2="6.3145" gradientUnits="userSpaceOnUse">
<stop stop-color="#6DC7FF"/>
<stop offset="1" stop-color="#E6ABFF"/>
</linearGradient>
<linearGradient id="paint3_linear" x1="16" y1="1.904" x2="16" y2="28.8675" gradientUnits="userSpaceOnUse">
<stop stop-color="#1A6DFF"/>
<stop offset="1" stop-color="#C822FF"/>
</linearGradient>
<linearGradient id="paint4_linear" x1="16" y1="1.904" x2="16" y2="28.8675" gradientUnits="userSpaceOnUse">
<stop stop-color="#1A6DFF"/>
<stop offset="1" stop-color="#C822FF"/>
</linearGradient>
<linearGradient id="paint5_linear" x1="16" y1="1.904" x2="16" y2="28.8675" gradientUnits="userSpaceOnUse">
<stop stop-color="#1A6DFF"/>
<stop offset="1" stop-color="#C822FF"/>
</linearGradient>
<linearGradient id="paint6_linear" x1="16" y1="1.904" x2="16" y2="28.8675" gradientUnits="userSpaceOnUse">
<stop stop-color="#1A6DFF"/>
<stop offset="1" stop-color="#C822FF"/>
</linearGradient>
</defs>
</svg>
