<svg width="72" height="72" viewBox="0 0 72 72" fill="none" xmlns="http://www.w3.org/2000/svg">
<rect width="72" height="72" fill="white"/>
<g clip-path="url(#clip0)">
<path d="M21.0675 62.7439C21.3292 61.982 21.6474 61.2407 22.0196 60.5262C21.9835 60.5142 21.9594 60.4901 21.9232 60.478C16.4756 57.3927 12.4019 51.8366 12.4019 42.8818C12.3557 39.9855 12.944 37.1141 14.1254 34.4693C14.4874 33.6884 14.9063 32.9351 15.3788 32.2156C16.8093 30.0751 18.6785 28.2634 20.8626 26.9005L28.0698 26.0087L46.7508 36.6508C46.5556 40.0305 47.1757 43.4075 48.5586 46.4975C52.4647 54.3097 54.7884 65.2857 55.5296 69.1701C55.5973 69.5234 55.5035 69.8884 55.2741 70.1655C55.0446 70.4425 54.7034 70.6026 54.3437 70.6019H20.9C20.5649 70.6027 20.2447 70.4641 20.016 70.2192C19.7873 69.9743 19.671 69.6453 19.6947 69.3111C19.8656 67.0718 20.3271 64.8641 21.0675 62.7439Z" fill="#80C2A1"/>
<path d="M38.2298 64.2383C38.2663 64.555 38.1748 64.8732 37.9756 65.1221C37.7765 65.3711 37.4862 65.5302 37.1692 65.5641C36.0611 65.694 34.9463 65.7584 33.8307 65.7569C29.3949 65.8022 25.0146 64.7681 21.0674 62.7439C21.3291 61.982 21.6473 61.2407 22.0195 60.5262C26.5993 62.8805 31.7808 63.8043 36.892 63.1777C37.2101 63.1404 37.53 63.2313 37.781 63.4303C38.032 63.6293 38.1935 63.9201 38.2298 64.2383Z" fill="#DF4D60"/>
<path d="M55.7898 38.0609C55.7898 38.0609 40.1219 36.8557 26.8645 29.6243C25.2143 28.1171 23.0728 27.2605 20.8384 27.2139C20.925 25.6601 21.8479 24.2757 23.2488 23.5982C24.5554 22.9898 26.0292 22.8412 27.4309 23.1764C20.6938 20.9226 20.1032 12.5704 25.6593 10.3408C26.4445 10.0287 27.1957 9.63698 27.901 9.17169C30.6491 7.25371 32.9478 4.76172 34.6382 1.86804C35.0776 1.1431 35.8634 0.699936 36.7112 0.698975H50.9087C54.5605 0.698975 57.0674 4.76058 56.9951 7.93031C56.9951 13.9564 58.2003 28.4191 55.7898 38.0609Z" fill="#FDD7AD"/>
<path d="M50.9691 29.5496C50.7082 29.5504 50.4542 29.4657 50.246 29.3085C47.3896 27.1669 43.4967 26.8764 40.0619 26.6197C38.3251 26.5679 36.6 26.3172 34.9204 25.8724C34.5113 25.7362 34.206 25.392 34.1195 24.9696C34.033 24.5472 34.1784 24.1108 34.501 23.8247C34.8235 23.5385 35.2742 23.4462 35.6833 23.5825C37.1756 23.9554 38.7039 24.1663 40.2414 24.2116C43.8197 24.4792 48.2718 24.8143 51.6911 27.3778C52.1061 27.689 52.2753 28.2309 52.1113 28.7231C51.9472 29.2152 51.4867 29.5472 50.9679 29.5472L50.9691 29.5496Z" fill="#F9C795"/>
<path d="M47.4135 27.8285C43.0747 26.4305 38.0972 26.9367 35.3011 26.0086C32.5773 25.0927 29.9137 23.6585 27.431 23.1764C20.6938 20.9226 20.1032 12.5704 25.6593 10.3408C26.4445 10.0287 27.1957 9.63697 27.901 9.17169C30.7028 9.95128 33.598 10.3446 36.5063 10.3408C43.7376 10.3408 43.7376 0.698975 43.7376 0.698975H48.5585C45.4249 13.2453 46.365 22.7304 47.4135 27.8285Z" fill="#80C2A1"/>
<path d="M41.3273 44.087C41.3306 45.7932 40.4262 47.3724 38.953 48.233C38.2143 48.677 37.3682 48.9104 36.5064 48.9079C36.3413 48.9122 36.1761 48.9041 36.0122 48.8838C33.4278 48.6175 31.5193 46.351 31.6967 43.759C31.8742 41.1669 34.0739 39.1817 36.6705 39.2702C39.2671 39.3586 41.3266 41.4889 41.3273 44.087Z" fill="#FDD7AD"/>
<path d="M25.31 46.0877L23.9842 46.389C23.936 46.3649 18.4281 43.6652 18.4281 39.2661C18.5017 37.775 17.8673 36.3366 16.7167 35.3853C15.9591 34.8371 15.0594 34.519 14.1255 34.4693C14.4875 33.6884 14.9064 32.9351 15.3789 32.2156C16.389 32.4199 17.3404 32.8482 18.163 33.469C19.9306 34.8623 20.9251 37.0171 20.8386 39.2661C20.8386 41.7007 24.0686 43.7496 24.9363 44.1714L24.4181 45.244L25.31 46.0877Z" fill="#802D40"/>
<path d="M30.4802 57.3444C23.2489 57.3444 24.4541 53.7288 22.0436 51.3183C19.6332 48.9079 18.428 48.9079 18.428 47.7026C18.428 46.1479 19.4404 45.5935 21.1277 45.4127C21.9245 45.3309 22.7251 45.2907 23.5261 45.2922C23.4899 45.1355 23.4538 44.9788 23.4297 44.8101C23.4158 44.7631 23.4077 44.7145 23.4055 44.6655C23.2959 44.0774 23.2434 43.48 23.2489 42.8817C23.2489 40.4713 28.0698 39.2661 28.0698 42.8817C28.0698 45.2078 31.4444 48.6548 36.0122 48.8838C36.1761 48.9041 36.3412 48.9122 36.5063 48.9079C37.3682 48.9104 38.2143 48.677 38.9529 48.2329C39.0373 50.2577 38.748 57.3444 30.4802 57.3444Z" fill="#FDD7AD"/>
<path d="M27.9372 51.8607C27.7371 52.2698 27.3199 52.5276 26.8645 52.5235C26.6755 52.5256 26.489 52.48 26.3222 52.391C23.7268 50.9331 21.854 48.4622 21.1518 45.5694C21.1388 45.5181 21.1307 45.4656 21.1277 45.4127C21.9245 45.3309 22.7251 45.2907 23.5261 45.2922C23.4899 45.1355 23.4538 44.9789 23.4297 44.8101C23.4553 44.8767 23.4754 44.9452 23.4899 45.015C24.0333 47.2171 25.4467 49.1045 27.4069 50.2457C27.6924 50.3885 27.909 50.6394 28.0086 50.9427C28.1082 51.2459 28.0825 51.5764 27.9372 51.8607Z" fill="#F9C795"/>
</g>
<defs>
<clipPath id="clip0">
<rect width="69.9029" height="69.9029" fill="white" transform="translate(0.349609 0.698975)"/>
</clipPath>
</defs>
</svg>
