<svg width="6" height="22" viewBox="0 0 6 22" fill="none" xmlns="http://www.w3.org/2000/svg">
<path d="M3 0C2.20435 0 1.44129 0.316071 0.878679 0.87868C0.31607 1.44129 0 2.20435 0 3C0 3.79565 0.31607 4.55871 0.878679 5.12132C1.44129 5.68393 2.20435 6 3 6C3.79565 6 4.55871 5.68393 5.12132 5.12132C5.68393 4.55871 6 3.79565 6 3C6 2.20435 5.68393 1.44129 5.12132 0.87868C4.55871 0.316071 3.79565 0 3 0ZM3 8C2.20435 8 1.44129 8.31607 0.878679 8.87868C0.31607 9.44129 0 10.2044 0 11C0 11.7956 0.31607 12.5587 0.878679 13.1213C1.44129 13.6839 2.20435 14 3 14C3.79565 14 4.55871 13.6839 5.12132 13.1213C5.68393 12.5587 6 11.7956 6 11C6 10.2044 5.68393 9.44129 5.12132 8.87868C4.55871 8.31607 3.79565 8 3 8ZM3 16C2.20435 16 1.44129 16.3161 0.878679 16.8787C0.31607 17.4413 0 18.2044 0 19C0 19.7956 0.31607 20.5587 0.878679 21.1213C1.44129 21.6839 2.20435 22 3 22C3.79565 22 4.55871 21.6839 5.12132 21.1213C5.68393 20.5587 6 19.7956 6 19C6 18.2044 5.68393 17.4413 5.12132 16.8787C4.55871 16.3161 3.79565 16 3 16Z" fill="black"/>
</svg>
