<svg width="18" height="18" viewBox="0 0 18 18" fill="none" xmlns="http://www.w3.org/2000/svg">
<path d="M8.25 2.25C7.836 2.25 7.5 2.586 7.5 3V4.5C7.5 4.914 7.836 5.25 8.25 5.25H9.75C10.164 5.25 10.5 4.914 10.5 4.5V3C10.5 2.586 10.164 2.25 9.75 2.25H8.25ZM8.25 7.5C7.836 7.5 7.5 7.836 7.5 8.25V9.75C7.5 10.164 7.836 10.5 8.25 10.5H9.75C10.164 10.5 10.5 10.164 10.5 9.75V8.25C10.5 7.836 10.164 7.5 9.75 7.5H8.25ZM8.25 12.75C7.836 12.75 7.5 13.086 7.5 13.5V15C7.5 15.414 7.836 15.75 8.25 15.75H9.75C10.164 15.75 10.5 15.414 10.5 15V13.5C10.5 13.086 10.164 12.75 9.75 12.75H8.25Z" fill="black"/>
</svg>
