<svg width="143" height="153" viewBox="0 0 143 153" fill="none" xmlns="http://www.w3.org/2000/svg">
<g opacity="0.9">
<path opacity="0.9" d="M87.5437 69.7231C87.9403 68.7292 88.618 67.8724 89.4939 67.2576C90.3697 66.6428 91.4058 66.2965 92.4753 66.2612H133.608C136.072 66.2612 137.737 68.2581 137.341 70.7263L124.328 148.415C124.099 149.644 123.457 150.757 122.51 151.572C121.563 152.387 120.366 152.855 119.117 152.899H15.9763C15.4147 152.921 14.8556 152.813 14.342 152.585C13.8283 152.357 13.3738 152.014 13.0134 151.583C12.6529 151.152 12.3961 150.644 12.2627 150.098C12.1293 149.552 12.1228 148.983 12.2437 148.434L23.3061 82.2972C23.5402 81.0725 24.1834 79.9636 25.1303 79.1523C26.0772 78.341 27.2716 77.8755 28.5177 77.8321H76.024C80.8857 77.8135 85.6587 74.4588 87.5437 69.7231Z" fill="#407BFF"/>
</g>
<path opacity="0.5" d="M87.5437 69.7231C87.9403 68.7292 88.618 67.8724 89.4939 67.2576C90.3697 66.6428 91.4058 66.2965 92.4753 66.2612H133.608C136.072 66.2612 137.737 68.2581 137.341 70.7263L124.328 148.415C124.099 149.644 123.457 150.757 122.51 151.572C121.563 152.387 120.366 152.855 119.117 152.899H15.9763C15.4147 152.921 14.8556 152.813 14.342 152.585C13.8283 152.357 13.3738 152.014 13.0134 151.583C12.6529 151.152 12.3961 150.644 12.2627 150.098C12.1293 149.552 12.1228 148.983 12.2437 148.434L23.3061 82.2972C23.5402 81.0725 24.1834 79.9636 25.1303 79.1523C26.0772 78.341 27.2716 77.8755 28.5177 77.8321H76.024C80.8857 77.8135 85.6587 74.4588 87.5437 69.7231Z" fill="white"/>
<path opacity="0.9" d="M71.1717 0.745239L40.0468 108.896L111.246 129.384L142.366 21.2324L71.1717 0.745239Z" fill="#407BFF"/>
<path opacity="0.7" d="M71.1717 0.745239L40.0468 108.896L111.246 129.384L142.366 21.2324L71.1717 0.745239Z" fill="white"/>
<g style="mix-blend-mode:multiply" opacity="0.9">
<path d="M69.7907 5.53693L40.0468 108.896L108.824 128.688L136.702 21.713L69.7907 5.53693Z" fill="#407BFF"/>
</g>
<path opacity="0.6" d="M69.7907 5.53693L40.0468 108.896L108.824 128.688L136.702 21.713L69.7907 5.53693Z" fill="#407BFF"/>
<g opacity="0.9">
<g style="mix-blend-mode:multiply" opacity="0.9">
<path d="M69.7907 5.53693L40.0468 108.896L108.824 128.688L136.702 21.713L69.7907 5.53693Z" fill="white"/>
</g>
<path opacity="0.6" d="M69.7907 5.53693L40.0468 108.896L108.824 128.688L136.702 21.713L69.7907 5.53693Z" fill="white"/>
</g>
<path d="M95.0013 34.8184C99.6678 29.4822 99.1249 21.3734 93.7888 16.7069C88.4526 12.0404 80.3439 12.5833 75.6774 17.9194C71.0109 23.2556 71.5537 31.3643 76.8899 36.0308C82.226 40.6973 90.3348 40.1545 95.0013 34.8184Z" fill="#407BFF"/>
<path d="M82.5233 36.13C80.5911 35.5716 78.8677 34.453 77.5711 32.9154C76.2745 31.3778 75.4629 29.4903 75.2389 27.4915C75.0148 25.4927 75.3884 23.4724 76.3123 21.6859C77.2363 19.8994 78.6692 18.4269 80.4299 17.4546C82.1906 16.4823 84.2 16.0539 86.2042 16.2234C88.2083 16.3929 90.1172 17.1529 91.6895 18.4071C93.2619 19.6613 94.427 21.3536 95.0378 23.2699C95.6485 25.1863 95.6774 27.2407 95.1208 29.1734C94.7514 30.458 94.1324 31.6571 93.2992 32.7022C92.4659 33.7473 91.4347 34.6179 90.2646 35.264C89.0946 35.9101 87.8086 36.3192 86.4802 36.4678C85.1519 36.6164 83.8073 36.5016 82.5233 36.13Z" fill="white"/>
<path d="M90.2895 46.8407L67.6282 40.3212L66.1628 45.4149L88.8241 51.9343L90.2895 46.8407Z" fill="#407BFF"/>
<path d="M67.7911 86.7768L55.2991 83.183L49.6026 102.984L62.0946 106.577L67.7911 86.7768Z" fill="#407BFF"/>
<path d="M111.994 99.4959L99.5023 95.9021L93.8059 115.703L106.298 119.297L111.994 99.4959Z" fill="#407BFF"/>
<path d="M89.8904 93.1387L77.3984 89.5449L71.702 109.346L84.194 112.939L89.8904 93.1387Z" fill="#407BFF"/>
<path d="M108.601 52.1046L93.2706 47.6943L91.8052 52.7879L107.136 57.1983L108.601 52.1046Z" fill="#407BFF"/>
<path d="M120.541 67.5242L64.444 51.3855L63.8403 53.4839L119.938 69.6226L120.541 67.5242Z" fill="white"/>
<path d="M91.0555 63.8689L63.1615 55.8441L62.5578 57.9426L90.4518 65.9674L91.0555 63.8689Z" fill="white"/>
<path d="M114.485 70.6095L95.8274 65.2419L95.2237 67.3404L113.881 72.7079L114.485 70.6095Z" fill="white"/>
<path d="M106.721 73.2002L61.8784 60.2994L61.2747 62.3978L106.118 75.2987L106.721 73.2002Z" fill="white"/>
<path d="M111.575 80.0534L60.0831 65.035L59.4717 67.1312L110.963 82.1496L111.575 80.0534Z" fill="white"/>
<path d="M65.2655 70.9327L59.3109 69.2197L58.7072 71.3181L64.6618 73.0312L65.2655 70.9327Z" fill="white"/>
<path d="M96.3554 79.8781L70.0442 72.3086L69.4405 74.407L95.7517 81.9765L96.3554 79.8781Z" fill="white"/>
<path d="M114.127 89.8196L58.03 73.6809L57.4263 75.7793L113.524 91.918L114.127 89.8196Z" fill="white"/>
<path d="M62.8854 4.52911L35.521 113.707L107.373 131.721L134.733 22.5434L62.8854 4.52911Z" fill="#407BFF"/>
<path opacity="0.8" d="M62.8854 4.52911L35.521 113.707L107.373 131.721L134.733 22.5434L62.8854 4.52911Z" fill="white"/>
<path d="M83.5117 41.1667C89.8949 38.0837 92.5703 30.4098 89.4873 24.0265C86.4042 17.6433 78.7303 14.968 72.3471 18.051C65.9638 21.134 63.2885 28.8079 66.3715 35.1912C69.4545 41.5744 77.1285 44.2498 83.5117 41.1667Z" fill="#407BFF"/>
<path d="M87.9258 31.4497C88.937 25.924 85.2772 20.6249 79.7516 19.6137C74.2259 18.6026 68.9267 22.2623 67.9156 27.788C66.9044 33.3137 70.5642 38.6128 76.0898 39.624C81.6155 40.6351 86.9147 36.9754 87.9258 31.4497Z" fill="white"/>
<path d="M83.5868 49.9238L60.7137 44.1912L59.4252 49.3324L82.2983 55.065L83.5868 49.9238Z" fill="#407BFF"/>
<path d="M62.481 90.6156L49.8723 87.4556L44.8634 107.441L57.4721 110.601L62.481 90.6156Z" fill="#407BFF"/>
<path d="M107.092 101.798L94.4832 98.6378L89.4742 118.623L102.083 121.783L107.092 101.798Z" fill="#407BFF"/>
<path d="M84.7882 96.2066L72.1794 93.0466L67.1705 113.032L79.7792 116.192L84.7882 96.2066Z" fill="#407BFF"/>
<path d="M102.064 54.5526L86.5902 50.6746L85.3017 55.8158L100.775 59.6939L102.064 54.5526Z" fill="#407BFF"/>
<path d="M114.532 69.5484L57.9109 55.3576L57.3801 57.4756L114.002 71.6665L114.532 69.5484Z" fill="white"/>
<path d="M84.94 66.9128L56.7854 59.8566L56.2546 61.9746L84.4092 69.0309L84.94 66.9128Z" fill="white"/>
<path d="M108.586 72.8378L89.7549 68.1181L89.224 70.2362L108.056 74.9558L108.586 72.8378Z" fill="white"/>
<path d="M100.917 75.7009L55.6554 64.3571L55.1246 66.4751L100.386 77.8189L100.917 75.7009Z" fill="white"/>
<path d="M106.559 81.9009L54.5312 68.8614L54.0004 70.9794L106.028 84.019L106.559 81.9009Z" fill="white"/>
<path d="M59.4102 74.8724L53.4 73.3661L52.8692 75.4841L58.8794 76.9904L59.4102 74.8724Z" fill="white"/>
<path d="M90.7907 82.7315L64.2336 76.0756L63.7028 78.1937L90.2598 84.8496L90.7907 82.7315Z" fill="white"/>
<path d="M108.894 92.0528L52.2725 77.8619L51.7416 79.98L108.363 94.1708L108.894 92.0528Z" fill="white"/>
<path opacity="0.5" d="M60.072 85.9411C60.1606 84.1915 61.691 82.9551 63.7719 82.9551H104.909C107.373 82.9551 109.748 84.6767 110.214 86.8043L122.565 149.026C123.031 151.154 121.407 152.88 118.944 152.88H15.7897C13.3215 152.88 10.9467 151.154 10.4801 149.026L0.322853 96.7749C-0.143718 94.6474 1.47995 92.921 3.94811 92.921H51.4357C56.3114 92.921 59.876 90.0283 60.072 85.9411Z" fill="#407BFF"/>
</svg>
