<svg width="242" height="95" viewBox="0 0 242 95" fill="none" xmlns="http://www.w3.org/2000/svg">
<g filter="url(#filter0_d)">
<path d="M218.368 74.9989H23.7834C19.4247 74.9989 16 71.5339 16 67.124V19.8749C16 15.4649 19.4247 12 23.7834 12H218.368C222.727 12 226.152 15.4649 226.152 19.8749V67.124C226.152 71.5339 222.727 74.9989 218.368 74.9989Z" fill="black"/>
<path d="M89.7873 28.0645C89.7873 29.3245 89.476 30.427 88.6977 31.2144C87.7637 32.1594 86.674 32.6319 85.273 32.6319C83.872 32.6319 82.7823 32.1594 81.8483 31.2144C80.9143 30.2695 80.4473 29.167 80.4473 27.7495C80.4473 26.3321 80.9143 25.2296 81.8483 24.2846C82.7823 23.3397 83.872 22.8672 85.273 22.8672C85.8956 22.8672 86.5183 23.0247 87.141 23.3397C87.7637 23.6547 88.2307 23.9697 88.542 24.4421L87.7637 25.2296C87.141 24.4421 86.3626 24.1271 85.273 24.1271C84.339 24.1271 83.405 24.4421 82.7823 25.2296C82.0039 25.8596 81.6926 26.8046 81.6926 27.907C81.6926 29.0095 82.0039 29.9545 82.7823 30.5845C83.5606 31.2144 84.339 31.6869 85.273 31.6869C86.3626 31.6869 87.141 31.3719 87.9193 30.5845C88.3863 30.112 88.6977 29.482 88.6977 28.6945H85.273V27.4345H89.7873V28.0645ZM96.9481 24.1271H92.745V27.1196H96.6367V28.222H92.745V31.2144H96.9481V32.4744H91.4997V23.0247H96.9481V24.1271ZM102.085 32.4744H100.84V24.1271H98.1934V23.0247H104.731V24.1271H102.085V32.4744ZM109.246 32.4744V23.0247H110.491V32.4744H109.246ZM115.784 32.4744H114.539V24.1271H111.892V23.0247H118.275V24.1271H115.628V32.4744H115.784ZM130.572 31.2144C129.638 32.1594 128.549 32.6319 127.148 32.6319C125.747 32.6319 124.657 32.1594 123.723 31.2144C122.789 30.2695 122.322 29.167 122.322 27.7495C122.322 26.3321 122.789 25.2296 123.723 24.2846C124.657 23.3397 125.747 22.8672 127.148 22.8672C128.549 22.8672 129.638 23.3397 130.572 24.2846C131.506 25.2296 131.973 26.3321 131.973 27.7495C131.973 29.167 131.506 30.2695 130.572 31.2144ZM124.657 30.427C125.28 31.0569 126.214 31.5294 127.148 31.5294C128.082 31.5294 129.016 31.2144 129.638 30.427C130.261 29.797 130.728 28.852 130.728 27.7495C130.728 26.6471 130.417 25.7021 129.638 25.0721C129.016 24.4421 128.082 23.9697 127.148 23.9697C126.214 23.9697 125.28 24.2846 124.657 25.0721C124.034 25.7021 123.567 26.6471 123.567 27.7495C123.567 28.852 123.879 29.797 124.657 30.427ZM133.686 32.4744V23.0247H135.087L139.601 30.427V23.0247H140.846V32.4744H139.601L134.775 24.7571V32.4744H133.686Z" fill="white"/>
<path d="M122.009 46.334C118.273 46.334 115.316 49.169 115.316 53.1064C115.316 56.8864 118.273 59.8788 122.009 59.8788C125.745 59.8788 128.703 57.0439 128.703 53.1064C128.703 49.0115 125.745 46.334 122.009 46.334ZM122.009 57.0439C119.986 57.0439 118.273 55.3114 118.273 52.9489C118.273 50.5865 119.986 48.854 122.009 48.854C124.033 48.854 125.745 50.429 125.745 52.9489C125.745 55.3114 124.033 57.0439 122.009 57.0439ZM107.532 46.334C103.796 46.334 100.839 49.169 100.839 53.1064C100.839 56.8864 103.796 59.8788 107.532 59.8788C111.268 59.8788 114.226 57.0439 114.226 53.1064C114.226 49.0115 111.268 46.334 107.532 46.334ZM107.532 57.0439C105.509 57.0439 103.796 55.3114 103.796 52.9489C103.796 50.5865 105.509 48.854 107.532 48.854C109.556 48.854 111.268 50.429 111.268 52.9489C111.268 55.3114 109.556 57.0439 107.532 57.0439ZM90.2531 48.3815V51.2164H96.9468C96.7912 52.7914 96.1685 54.0514 95.3901 54.8389C94.4561 55.7839 92.8995 56.8864 90.2531 56.8864C86.0501 56.8864 82.9367 53.5789 82.9367 49.3265C82.9367 45.074 86.2057 41.7666 90.2531 41.7666C92.4325 41.7666 94.1448 42.7116 95.3901 43.8141L97.4138 41.7666C95.7015 40.1916 93.5221 38.9316 90.4088 38.9316C84.8047 38.9316 79.979 43.6566 79.979 49.3265C79.979 54.9964 84.8047 59.7213 90.4088 59.7213C93.5221 59.7213 95.7015 58.7763 97.5695 56.7289C99.4375 54.8389 100.06 52.1614 100.06 50.114C100.06 49.484 100.06 48.854 99.9045 48.3815H90.2531ZM160.926 50.5865C160.304 49.0115 158.747 46.334 155.322 46.334C151.898 46.334 149.096 49.0115 149.096 53.1064C149.096 56.8864 151.898 59.8788 155.634 59.8788C158.591 59.8788 160.459 57.9888 161.082 56.8864L158.903 55.3114C158.124 56.4139 157.19 57.2014 155.634 57.2014C154.077 57.2014 153.143 56.5714 152.365 55.1539L161.238 51.3739L160.926 50.5865ZM151.898 52.7914C151.898 50.2715 153.921 48.854 155.322 48.854C156.412 48.854 157.502 49.484 157.813 50.2715L151.898 52.7914ZM144.581 59.2488H147.539V39.5616H144.581V59.2488ZM139.911 47.7515C139.133 46.964 137.888 46.1765 136.331 46.1765C133.062 46.1765 129.948 49.169 129.948 52.9489C129.948 56.7289 132.906 59.5638 136.331 59.5638C137.888 59.5638 139.133 58.7763 139.756 57.9888H139.911V58.9338C139.911 61.4538 138.51 62.8713 136.331 62.8713C134.618 62.8713 133.373 61.6113 133.062 60.5088L130.571 61.6113C131.349 63.3438 133.217 65.5487 136.487 65.5487C139.911 65.5487 142.713 63.5013 142.713 58.6188V46.649H139.911V47.7515ZM136.487 57.0439C134.463 57.0439 132.75 55.3114 132.75 52.9489C132.75 50.5865 134.463 48.854 136.487 48.854C138.51 48.854 140.067 50.5865 140.067 52.9489C140.067 55.3114 138.51 57.0439 136.487 57.0439ZM174.47 39.5616H167.464V59.2488H170.422V51.8464H174.47C177.739 51.8464 180.852 49.484 180.852 45.704C180.852 41.9241 177.739 39.5616 174.47 39.5616ZM174.625 49.0115H170.422V42.2391H174.625C176.805 42.2391 178.05 44.1291 178.05 45.5465C177.894 47.279 176.649 49.0115 174.625 49.0115ZM192.527 46.1765C190.348 46.1765 188.168 47.1215 187.39 49.169L190.036 50.2715C190.659 49.169 191.593 48.854 192.683 48.854C194.239 48.854 195.64 49.799 195.796 51.3739V51.5314C195.329 51.2164 194.084 50.744 192.838 50.744C190.036 50.744 187.234 52.3189 187.234 55.1539C187.234 57.8313 189.569 59.5638 192.06 59.5638C194.084 59.5638 195.018 58.6188 195.796 57.6738H195.952V59.2488H198.754V51.6889C198.442 48.224 195.796 46.1765 192.527 46.1765ZM192.216 57.0439C191.282 57.0439 189.881 56.5714 189.881 55.3114C189.881 53.7364 191.593 53.2639 192.994 53.2639C194.239 53.2639 194.862 53.5789 195.64 53.8939C195.329 55.7839 193.772 57.0439 192.216 57.0439ZM208.561 46.649L205.292 55.1539H205.136L201.711 46.649H198.598L203.735 58.6188L200.777 65.2337H203.735L211.674 46.649H208.561ZM182.409 59.2488H185.366V39.5616H182.409V59.2488Z" fill="white"/>
<path d="M32.1891 23.8125C31.7221 24.285 31.5664 25.0725 31.5664 26.0175V60.8244C31.5664 61.7693 31.8777 62.5568 32.3447 63.0293L32.5004 63.1868L51.8032 43.6572V43.3422L32.1891 23.8125Z" fill="url(#paint0_linear)"/>
<path d="M58.0299 50.2712L51.6475 43.8137V43.3412L58.0299 36.8838L58.1855 37.0413L65.8133 41.4513C67.9926 42.7113 67.9926 44.7587 65.8133 46.0187L58.0299 50.2712Z" fill="url(#paint1_linear)"/>
<path d="M58.185 50.1148L51.647 43.5L32.1885 63.1868C32.9668 63.9742 34.0565 63.9742 35.4575 63.3442L58.185 50.1148Z" fill="url(#paint2_linear)"/>
<path d="M58.185 36.8849L35.4575 23.8127C34.0565 23.0252 32.9668 23.1827 32.1885 23.9702L51.647 43.4998L58.185 36.8849Z" fill="url(#paint3_linear)"/>
<path opacity="0.2" d="M58.0294 49.9561L35.4575 62.871C34.2122 63.6585 33.1225 63.501 32.3441 62.871L32.1885 63.0285L32.3441 63.186C33.1225 63.816 34.2122 63.9735 35.4575 63.186L58.0294 49.9561Z" fill="black"/>
<path opacity="0.2" d="M32.1891 62.8722C31.7221 62.3997 31.5664 61.6122 31.5664 60.6672V60.8247C31.5664 61.7697 31.8777 62.5572 32.3447 63.0297V62.8722H32.1891ZM65.8134 45.5475L58.03 49.9574L58.1856 50.1149L65.8134 45.705C66.9031 45.075 67.3701 44.2875 67.3701 43.5C67.3701 44.2875 66.7474 44.9175 65.8134 45.5475Z" fill="black"/>
<path opacity="0.2" d="M35.4591 23.97L65.8143 41.4519C66.7484 42.0819 67.371 42.7118 67.371 43.4993C67.371 42.7118 66.904 41.9244 65.8143 41.2944L35.4591 23.8125C33.2797 22.5525 31.5674 23.4975 31.5674 26.0174V26.1749C31.5674 23.8125 33.2797 22.71 35.4591 23.97Z" fill="white"/>
</g>
<defs>
<filter id="filter0_d" x="0.688126" y="0.771292" width="240.776" height="93.6228" filterUnits="userSpaceOnUse" color-interpolation-filters="sRGB">
<feFlood flood-opacity="0" result="BackgroundImageFix"/>
<feColorMatrix in="SourceAlpha" type="matrix" values="0 0 0 0 0 0 0 0 0 0 0 0 0 0 0 0 0 0 127 0" result="hardAlpha"/>
<feOffset dy="4.08317"/>
<feGaussianBlur stdDeviation="7.65594"/>
<feColorMatrix type="matrix" values="0 0 0 0 0.372549 0 0 0 0 0.372549 0 0 0 0 0.372549 0 0 0 0.15 0"/>
<feBlend mode="normal" in2="BackgroundImageFix" result="effect1_dropShadow"/>
<feBlend mode="normal" in="SourceGraphic" in2="effect1_dropShadow" result="shape"/>
</filter>
<linearGradient id="paint0_linear" x1="49.9352" y1="25.7182" x2="23.5043" y2="51.8406" gradientUnits="userSpaceOnUse">
<stop stop-color="#00A0FF"/>
<stop offset="0.007" stop-color="#00A1FF"/>
<stop offset="0.26" stop-color="#00BEFF"/>
<stop offset="0.512" stop-color="#00D2FF"/>
<stop offset="0.76" stop-color="#00DFFF"/>
<stop offset="1" stop-color="#00E3FF"/>
</linearGradient>
<linearGradient id="paint1_linear" x1="68.6682" y1="43.5003" x2="31.0012" y2="43.5003" gradientUnits="userSpaceOnUse">
<stop stop-color="#FFE000"/>
<stop offset="0.409" stop-color="#FFBD00"/>
<stop offset="0.775" stop-color="#FFA500"/>
<stop offset="1" stop-color="#FF9C00"/>
</linearGradient>
<linearGradient id="paint2_linear" x1="54.6467" y1="47.1161" x2="18.8066" y2="82.5406" gradientUnits="userSpaceOnUse">
<stop stop-color="#FF3A44"/>
<stop offset="1" stop-color="#C31162"/>
</linearGradient>
<linearGradient id="paint3_linear" x1="27.3581" y1="12.2776" x2="43.3635" y2="28.097" gradientUnits="userSpaceOnUse">
<stop stop-color="#32A071"/>
<stop offset="0.069" stop-color="#2DA771"/>
<stop offset="0.476" stop-color="#15CF74"/>
<stop offset="0.801" stop-color="#06E775"/>
<stop offset="1" stop-color="#00F076"/>
</linearGradient>
</defs>
</svg>
