<svg width="72" height="73" viewBox="0 0 72 73" fill="none" xmlns="http://www.w3.org/2000/svg">
<g clip-path="url(#clip0)">
<path d="M36.0001 72.5C55.6893 72.5 71.6506 56.3822 71.6506 36.5C71.6506 16.6177 55.6893 0.5 36.0001 0.5C16.3109 0.5 0.349609 16.6177 0.349609 36.5C0.349609 56.3822 16.3109 72.5 36.0001 72.5Z" fill="#FAC176"/>
<path d="M21.6538 43.6255C19.3414 45.1936 17.1695 46.9631 15.1629 48.9138C13.518 50.8434 12.3863 53.1639 11.8745 55.657C7.58921 50.21 5.25982 43.4566 5.26686 36.5C5.26686 36.3386 5.26686 36.1772 5.27916 36.0159C5.3775 39.2683 7.49194 42.7069 12.7043 42.7069C15.7033 42.8273 18.6921 43.1341 21.6538 43.6255Z" fill="#802D40"/>
<path d="M65.6022 28.1952C63.5726 23.4628 58.9567 20.3966 53.8496 20.3886C48.7426 20.3805 44.1171 23.432 42.0729 28.1579C40.9637 30.6608 40.646 33.4482 41.1632 36.14C39.1909 35.2669 36.9926 35.058 34.8936 35.5441C34.1618 35.758 33.5242 36.2179 33.0865 36.8476C32.8646 36.6491 32.6261 36.4705 32.3735 36.3138C31.4187 35.6874 30.3148 35.3315 29.1772 35.2835C28.9936 35.2625 28.8088 35.2542 28.624 35.2586H13.9336C12.7043 35.2586 13.9336 30.2931 9.01628 30.2931C6.93872 30.2931 5.52499 32.4903 5.30371 35.0352C6.0553 18.7435 19.1765 5.82461 35.3239 5.47793C35.5452 5.46552 35.7787 5.46552 36 5.46552C37.6633 5.46476 39.324 5.59759 40.9665 5.86276C52.7865 7.82283 62.4018 16.5391 65.6022 28.1952Z" fill="#802D40"/>
<path d="M48.4333 64.8606C50.2386 63.0376 51.8405 61.0203 53.2105 58.8448C54.0527 57.0933 54.6247 55.222 54.907 53.2959V53.2835C55.0053 52.7497 55.0914 52.2655 55.1774 51.8186V51.8062C55.2826 50.8744 55.6787 50.0005 56.3084 49.311C56.4862 49.152 56.6847 49.0184 56.8985 48.9138C60.0087 47.3372 63.9794 44.8545 65.5038 41.4655C66.1669 39.3343 66.5674 37.1287 66.6962 34.8986C66.7208 35.4324 66.7331 35.9662 66.7331 36.5C66.7329 48.7787 59.5566 59.9004 48.4333 64.8606Z" fill="#802D40"/>
<path d="M37.2293 28.8779C37.2293 32.2917 34.7461 34.7372 32.3735 36.3138C31.0344 37.1876 29.5986 37.9001 28.0954 38.4366C27.9689 38.4804 27.8358 38.5014 27.702 38.4986C27.1735 38.5 26.7033 38.1601 26.5342 37.6545C26.3259 37.0038 26.6696 36.3042 27.3086 36.0779C27.3332 36.0655 28.12 35.7924 29.1772 35.2835C31.3777 34.191 34.7707 32.0062 34.7707 28.8779C34.7707 26.4697 33.738 25.5386 32.312 24.2476C29.8833 22.4289 28.5026 19.5149 28.624 16.4641C28.5234 11.7902 31.1454 7.49086 35.3239 5.47793C35.5451 5.46552 35.7787 5.46552 36 5.46552C37.6633 5.46476 39.324 5.59759 40.9665 5.86276L36.4548 7.68759C33.0916 9.27002 30.9806 12.7188 31.0827 16.4641C30.9603 18.8149 32.0478 21.063 33.9593 22.4103C36.0358 23.8924 37.2584 26.3104 37.2293 28.8779Z" fill="#FB7B76"/>
<path d="M66.6965 34.8738V34.8986C66.5677 37.1288 66.1672 39.3344 65.504 41.4655C63.9797 44.8545 60.0089 47.3373 56.8987 48.9138C56.685 49.0184 56.4864 49.152 56.3087 49.3111C55.679 50.0005 55.2828 50.8744 55.1777 51.8062V51.8186C55.0916 52.2655 55.0056 52.7497 54.9072 53.2835V53.2959C54.625 55.222 54.0529 57.0933 53.2108 58.8448C51.8336 61.0252 50.226 63.048 48.4164 64.8779C44.5095 66.6377 40.2781 67.543 36.0002 67.5345C26.5795 67.5376 17.6808 63.1659 11.8685 55.6793C12.3787 53.1778 13.5127 50.8492 15.1631 48.9138C17.1697 46.9631 19.3416 45.1936 21.6539 43.6255C18.6923 43.1341 15.7034 42.8273 12.7044 42.7069C7.49209 42.7069 5.37764 39.2683 5.2793 36.0159C5.2793 35.6931 5.29159 35.3579 5.30388 35.0352C5.52516 32.4904 6.93889 30.2931 9.01645 30.2931C13.9338 30.2931 12.7044 35.2586 13.9338 35.2586H28.6242C30.2561 35.2066 31.8481 35.7734 33.0867 36.8476C33.5244 36.2179 34.162 35.7581 34.8938 35.5442C36.9928 35.058 39.191 35.2669 41.1634 36.14C40.6462 33.4482 40.9639 30.6608 42.0731 28.1579C44.1173 23.432 48.7427 20.3805 53.8498 20.3886C58.9569 20.3966 63.5728 23.4628 65.6024 28.1952C65.6072 28.2171 65.6155 28.238 65.627 28.2573C66.2226 30.4165 66.5813 32.6354 66.6965 34.8738Z" fill="#FDD7AD"/>
<path d="M56.3085 49.3111C55.6788 50.0005 55.2827 50.8744 55.1775 51.8062C54.2113 50.4831 52.9185 49.4387 51.4281 48.7773L41.5934 43.8117C41.168 43.6329 40.8774 43.2288 40.8406 42.7649C40.8038 42.3011 41.0269 41.8554 41.4187 41.6104C41.8104 41.3654 42.305 41.3622 42.6998 41.6021L52.5344 46.5676C53.9462 47.2444 55.2249 48.1739 56.3085 49.3111Z" fill="#F9C795"/>
<path d="M57.4088 41.4655C56.4303 41.4672 55.4914 41.0749 54.8002 40.3756C54.3343 39.8885 54.3409 39.1142 54.8151 38.6354C55.2893 38.1566 56.0561 38.1498 56.5384 38.6203C57.0184 39.1053 57.797 39.1056 58.2773 38.6209C58.7577 38.1362 58.7579 37.35 58.2779 36.865C57.9584 36.5533 57.8302 36.0917 57.9427 35.6577C58.0552 35.2237 58.3909 34.8847 58.8207 34.7711C59.2505 34.6575 59.7075 34.787 60.0162 35.1097C61.0697 36.1749 61.3846 37.7758 60.814 39.1667C60.2434 40.5575 58.8997 41.4647 57.4088 41.4655Z" fill="#F9C795"/>
<path d="M46.1777 37.3615C45.9097 37.174 39.5836 32.7845 34.5299 34.3611C32.8466 34.8668 31.5803 36.2741 31.2426 38.0145C30.7386 40.2489 31.4246 43.0222 33.1788 46.1231C32.794 47.1982 32.3871 48.123 32.2814 48.3365C31.2058 50.4034 27.8866 52.762 24.3744 53.9426C23.9571 54.083 23.6458 54.4374 23.5575 54.8725C23.4693 55.3076 23.6176 55.7571 23.9466 56.0518C24.2756 56.3465 24.7353 56.4416 25.1526 56.3012C29.3323 54.8935 33.0731 52.1575 34.4684 49.4736C34.5397 49.3309 34.6651 49.0528 34.82 48.6891C36.8313 51.4422 39.1077 53.9874 41.6157 56.2876C42.1152 56.7392 42.881 56.7034 43.337 56.207C43.793 55.7106 43.771 54.9368 43.2876 54.4677C35.2318 46.9214 33.0227 41.3091 33.6398 38.5694C33.7869 37.6936 34.4175 36.9801 35.2625 36.7334C39.162 35.5168 44.7284 39.3614 44.78 39.3998C45.3374 39.7913 46.1035 39.6524 46.4912 39.0895C46.8789 38.5266 46.7413 37.753 46.1839 37.3615H46.1777Z" fill="#F9C795"/>
</g>
<defs>
<clipPath id="clip0">
<rect width="71.301" height="72" fill="white" transform="translate(0.349609 0.5)"/>
</clipPath>
</defs>
</svg>
