<svg width="22" height="25" viewBox="0 0 22 25" fill="none" xmlns="http://www.w3.org/2000/svg">
<path d="M11 0C7.14567 0 4 3.14567 4 7V9H2C0.895 9 0 9.895 0 11V23C0 24.105 0.895 25 2 25H20C21.105 25 22 24.105 22 23V11C22 9.895 21.105 9 20 9H18V7C18 3.27158 15.0366 0.268565 11.3555 0.0722656C11.2424 0.0267105 11.1219 0.00221916 11 0ZM11 2C13.7737 2 16 4.22633 16 7V9H6V7C6 4.22633 8.22633 2 11 2ZM11 12C13.761 12 16 14.239 16 17C16 19.761 13.761 22 11 22C8.239 22 6 19.761 6 17C6 14.239 8.239 12 11 12ZM11 14C9.343 14 8 15.343 8 17C8 18.657 9.343 20 11 20C12.657 20 14 18.657 14 17C14 16.537 13.8862 16.1049 13.6992 15.7129C13.5192 15.8899 13.273 16 13 16C12.448 16 12 15.552 12 15C12 14.727 12.1101 14.4808 12.2871 14.3008C11.8951 14.1138 11.463 14 11 14Z" fill="#E01212"/>
</svg>
