<svg width="26" height="26" viewBox="0 0 26 26" fill="none" xmlns="http://www.w3.org/2000/svg">
<path d="M2.925 13.975V8.5072L5.42815 1.625H20.5719L23.075 8.5072V13.975H2.925Z" fill="#DFF0FE"/>
<path d="M20.345 1.94999L22.75 8.56439V13.65H3.25V8.56439L5.655 1.94999H20.345ZM20.8 1.29999H5.2L2.6 8.44999V14.3H23.4V8.44999L20.8 1.29999Z" fill="#4788C7"/>
<path d="M4.55 12.35H21.45V8.79385L19.4344 3.25H6.56565L4.55 8.79385V12.35Z" fill="#98CCFD"/>
<path d="M2.925 24.375V8.77502H9.4393C9.60375 10.595 11.1378 12.025 13 12.025C14.8623 12.025 16.3963 10.595 16.5607 8.77502H23.075V24.375H2.925Z" fill="#DFF0FE"/>
<path d="M22.75 9.10001V24.05H3.25V9.10001H9.15395C9.464 10.9421 11.0708 12.35 13 12.35C14.9292 12.35 16.5353 10.9421 16.846 9.10001H22.75ZM23.4 8.45001H16.25C16.25 10.2447 14.7946 11.7 13 11.7C11.2053 11.7 9.75 10.2447 9.75 8.45001H2.6V24.7H23.4V8.45001Z" fill="#4788C7"/>
<path d="M13 13.975C11.8795 13.975 10.8048 14.4201 10.0125 15.2125C9.22013 16.0048 8.775 17.0794 8.775 18.2C8.775 19.3205 9.22013 20.3952 10.0125 21.1875C10.8048 21.9798 11.8795 22.425 13 22.425C14.1205 22.425 15.1952 21.9798 15.9875 21.1875C16.7799 20.3952 17.225 19.3205 17.225 18.2C17.225 17.0794 16.7799 16.0048 15.9875 15.2125C15.1952 14.4201 14.1205 13.975 13 13.975Z" fill="white"/>
<path d="M13 14.3C15.1502 14.3 16.9 16.0498 16.9 18.2C16.9 20.3502 15.1502 22.1 13 22.1C10.8498 22.1 9.1 20.3502 9.1 18.2C9.1 16.0498 10.8498 14.3 13 14.3ZM13 13.65C10.4871 13.65 8.45 15.6871 8.45 18.2C8.45 20.7129 10.4871 22.75 13 22.75C15.5129 22.75 17.55 20.7129 17.55 18.2C17.55 15.6871 15.5129 13.65 13 13.65Z" fill="#4788C7"/>
<path d="M14.5327 15.9354L13 18.2L14.571 19.7711" stroke="#4788C7" stroke-miterlimit="10" stroke-linecap="round"/>
<path d="M13 17.55C12.8276 17.55 12.6623 17.6185 12.5404 17.7404C12.4185 17.8623 12.35 18.0276 12.35 18.2C12.35 18.3724 12.4185 18.5377 12.5404 18.6596C12.6623 18.7815 12.8276 18.85 13 18.85C13.1724 18.85 13.3377 18.7815 13.4596 18.6596C13.5815 18.5377 13.65 18.3724 13.65 18.2C13.65 18.0276 13.5815 17.8623 13.4596 17.7404C13.3377 17.6185 13.1724 17.55 13 17.55Z" fill="#4788C7"/>
</svg>
