<svg width="32" height="32" viewBox="0 0 32 32" fill="none" xmlns="http://www.w3.org/2000/svg">
<path d="M16 12.9355C14.9675 11.828 14.5 10.8375 14.5 10.308C14.5 9.5865 15.173 9 16 9C16.827 9 17.5 9.5865 17.5 10.3075C17.5 10.837 17.0325 11.8275 16 12.9355Z" fill="url(#paint0_linear)"/>
<path d="M11.0585 20.5C10.5255 20.5 10.0135 20.191 9.7235 19.693C9.507 19.3225 9.443 18.887 9.547 18.498C9.635 18.1695 9.8365 17.901 10.115 17.7415C10.3875 17.5855 10.844 17.5 11.4 17.5C11.9315 17.5 12.56 17.58 13.207 17.7275C12.758 19.177 12.1255 20.0775 11.661 20.342C11.4785 20.447 11.276 20.5 11.0585 20.5Z" fill="url(#paint1_linear)"/>
<path d="M16 3C8.8315 3 3 8.832 3 16C3 23.168 8.8315 29 16 29C23.1685 29 29 23.168 29 16C29 8.832 23.1685 3 16 3ZM16 28C9.3835 28 4 22.6165 4 16C4 9.3835 9.3835 4 16 4C22.6165 4 28 9.3835 28 16C28 22.6165 22.6165 28 16 28ZM19.5 10.3075C19.5 8.4845 17.93 7.0005 16 7C14.0705 7 12.5 8.484 12.5 10.3075C12.5 12.0805 14.142 14.0915 15.678 15.382C15.7715 15.46 15.8855 15.499 16 15.499C16.1145 15.499 16.2285 15.46 16.322 15.382C17.8585 14.0915 19.5 12.0805 19.5 10.3075ZM16 14.336C14.782 13.2345 13.5 11.622 13.5 10.3075C13.5 9.035 14.6215 8 16 8C17.3785 8.0005 18.5 9.0355 18.5 10.3075C18.5 11.622 17.218 13.2345 16 14.336ZM15.1695 16.2215C13.2625 15.5355 10.674 15.119 9.1215 16.005C8.3775 16.431 7.842 17.1325 7.6155 17.9805C7.3745 18.8805 7.513 19.872 7.9955 20.7C8.6655 21.848 9.86 22.499 11.06 22.499C11.607 22.499 12.1545 22.3635 12.654 22.078C14.206 21.1915 15.138 18.7595 15.4925 16.7795C15.535 16.5405 15.3985 16.304 15.1695 16.2215ZM12.1575 21.2105C11.0375 21.851 9.5585 21.396 8.8595 20.1965C8.51 19.597 8.4085 18.8835 8.581 18.239C8.738 17.6505 9.107 17.166 9.6175 16.8735C10.773 16.214 12.84 16.519 14.4235 17.025C14.0745 18.633 13.3095 20.5525 12.1575 21.2105ZM24.3845 17.9805C24.1575 17.133 23.6225 16.4315 22.8775 16.006C21.326 15.1195 18.7365 15.5365 16.8305 16.2225C16.6015 16.305 16.465 16.541 16.5075 16.781C16.8615 18.761 17.7925 21.1925 19.3455 22.0795C19.8445 22.3645 20.392 22.5 20.939 22.5C22.1385 22.5 23.3345 21.8485 24.004 20.701C24.487 19.872 24.6255 18.881 24.3845 17.9805ZM23.1395 20.1965C22.44 21.3955 20.9605 21.85 19.8415 21.211C18.6895 20.553 17.9245 18.633 17.5755 17.0255C19.159 16.5195 21.226 16.214 22.381 16.874C22.892 17.166 23.2605 17.651 23.418 18.239C23.591 18.884 23.4895 19.597 23.1395 20.1965Z" fill="url(#paint2_linear)"/>
<path d="M20.941 20.5C20.7235 20.5 20.5205 20.447 20.338 20.3425C19.8735 20.0775 19.2415 19.1765 18.792 17.7275C19.4395 17.58 20.0675 17.5 20.599 17.5C21.155 17.5 21.612 17.586 21.885 17.742C22.163 17.9005 22.364 18.169 22.4525 18.498C22.5565 18.886 22.492 19.3215 22.2755 19.6925C21.9855 20.1905 21.474 20.5 20.941 20.5Z" fill="url(#paint3_linear)"/>
<defs>
<linearGradient id="paint0_linear" x1="16" y1="9.152" x2="16" y2="12.7035" gradientUnits="userSpaceOnUse">
<stop stop-color="#6DC7FF"/>
<stop offset="1" stop-color="#E6ABFF"/>
</linearGradient>
<linearGradient id="paint1_linear" x1="11.353" y1="16.652" x2="11.353" y2="20.5125" gradientUnits="userSpaceOnUse">
<stop stop-color="#6DC7FF"/>
<stop offset="1" stop-color="#E6ABFF"/>
</linearGradient>
<linearGradient id="paint2_linear" x1="16" y1="1.0435" x2="16" y2="30.7175" gradientUnits="userSpaceOnUse">
<stop stop-color="#1A6DFF"/>
<stop offset="1" stop-color="#C822FF"/>
</linearGradient>
<linearGradient id="paint3_linear" x1="20.6465" y1="16.652" x2="20.6465" y2="20.5125" gradientUnits="userSpaceOnUse">
<stop stop-color="#6DC7FF"/>
<stop offset="1" stop-color="#E6ABFF"/>
</linearGradient>
</defs>
</svg>
