<svg width="15" height="15" viewBox="0 0 15 15" fill="none" xmlns="http://www.w3.org/2000/svg">
<path d="M14.5 13.7502L10.7 9.95015C11.5 8.95015 12 7.75016 12 6.35016C12 3.25016 9.49995 0.650146 6.29995 0.650146C3.09995 0.650146 0.699951 3.15016 0.699951 6.35016C0.699951 9.55016 3.19995 11.9501 6.29995 11.9501C7.49995 11.9501 8.59995 11.5501 9.49995 10.9501L13.3 14.7502C13.5 14.9502 13.6 14.9501 13.8 14.9501C14 14.9501 14.2 14.8502 14.3 14.7502C14.8 14.5502 14.8 14.0502 14.5 13.7502ZM2.29995 6.35016C2.29995 4.05016 4.09995 2.25015 6.39995 2.25015C8.69995 2.25015 10.5 4.05016 10.5 6.35016C10.5 8.65016 8.69995 10.4501 6.39995 10.4501C4.09995 10.4501 2.29995 8.65016 2.29995 6.35016Z" fill="#BFC6D4"/>
</svg>
