<svg width="30" height="30" viewBox="0 0 30 30" fill="none" xmlns="http://www.w3.org/2000/svg">
<path d="M26 3C25.904 3.00066 25.8086 3.01513 25.7168 3.04297C25.6898 3.05031 25.663 3.05878 25.6367 3.06836L3.65039 10.0605V10.0645C3.45963 10.1356 3.29514 10.2634 3.17892 10.4305C3.0627 10.5977 3.00027 10.7964 3 11C3.00036 11.1717 3.04494 11.3404 3.12943 11.4899C3.21393 11.6394 3.33549 11.7646 3.48242 11.8535L10.1641 17.1543L23.373 6.62695L12.8457 19.8359L18.1426 26.5137C18.2313 26.6619 18.3569 26.7846 18.5072 26.8698C18.6575 26.9551 18.8272 26.9999 19 27C19.2036 26.9997 19.4023 26.9373 19.5695 26.8211C19.7366 26.7049 19.8644 26.5404 19.9355 26.3496H19.9395L26.9375 4.34375C26.9447 4.32378 26.9512 4.30359 26.957 4.2832C26.9849 4.19135 26.9993 4.09597 27 4C27 3.73478 26.8946 3.48043 26.7071 3.29289C26.5196 3.10536 26.2652 3 26 3Z" fill="white"/>
</svg>
