<svg width="234" height="212" viewBox="0 0 234 212" fill="none" xmlns="http://www.w3.org/2000/svg">
<mask id="mask0" mask-type="alpha" maskUnits="userSpaceOnUse" x="55" y="1" width="178" height="203">
<path fill-rule="evenodd" clip-rule="evenodd" d="M55.6016 20.3796L209.8 1.4464L232.33 184.935L78.1311 203.868L55.6016 20.3796Z" fill="white"/>
</mask>
<g mask="url(#mask0)">
<path fill-rule="evenodd" clip-rule="evenodd" d="M213.222 110.723C216.337 113.12 218.589 116.861 219.129 121.26C219.976 128.16 216.369 134.513 210.77 136.911C213.664 139.089 215.756 142.538 216.254 146.592L216.311 147.051C217.067 153.211 213.935 158.903 209.007 161.18C212.229 163.396 214.586 167.098 215.126 171.496L215.289 172.824C216.234 180.522 211.283 187.519 204.291 188.377L133.916 197.018C133.916 197.018 115.069 199.391 110.974 195.287C108.325 192.631 103.75 190.627 100.855 189.544C99.2749 188.954 98.1936 188.633 98.1936 188.633L76.5862 191.286L67.4033 116.497C67.4033 116.497 86.3099 112.925 97.1595 105.385C99.1574 104 100.879 102.48 102.164 100.825C110.423 90.1558 121.329 62.0494 121.6 47.9743C121.865 33.9004 117.16 24.8232 117.885 17.7166C118.604 10.6046 141.538 2.52714 153.177 38.8294C158.241 54.6205 158.918 67.8793 158.062 77.8206C157.868 80.0344 157.602 82.0823 157.295 83.9604L203.385 78.3012C206.432 77.9271 209.401 78.5477 212.01 79.9314C216.769 82.4377 220.362 87.4654 221.112 93.5678C221.997 100.775 218.666 107.476 213.222 110.723Z" fill="#FEC997"/>
</g>
<path fill-rule="evenodd" clip-rule="evenodd" d="M97.1007 105.612L100.849 190.066C99.272 189.473 98.1931 189.15 98.1931 189.15L76.6389 191.796L67.4232 116.741C67.4232 116.741 86.2822 113.17 97.1007 105.612Z" fill="#F1AF6F"/>
<mask id="mask1" mask-type="alpha" maskUnits="userSpaceOnUse" x="11" y="99" width="86" height="112">
<path fill-rule="evenodd" clip-rule="evenodd" d="M11.2102 108.511L83.9911 99.5744L96.4583 201.111L23.6774 210.048L11.2102 108.511Z" fill="white"/>
</mask>
<g mask="url(#mask1)">
<path fill-rule="evenodd" clip-rule="evenodd" d="M84.8849 106.854L95.5645 193.832C96.0585 197.855 93.2119 201.51 89.2013 202.002L30.9362 209.157C26.4294 209.71 22.5111 206.055 22.7402 201.503L24.9002 158.363L27.1855 112.668C27.3625 109.107 30.0678 106.195 33.5944 105.762L76.7341 100.465C80.7447 99.973 84.3909 102.831 84.8849 106.854Z" fill="#E01212"/>
</g>
<mask id="mask2" mask-type="alpha" maskUnits="userSpaceOnUse" x="20" y="175" width="77" height="36">
<path fill-rule="evenodd" clip-rule="evenodd" d="M20.37 184.271L93.1509 175.334L96.3507 201.395L23.5698 210.331L20.37 184.271Z" fill="white"/>
</mask>
<g mask="url(#mask2)">
<path fill-rule="evenodd" clip-rule="evenodd" d="M23.5215 183.884L22.6309 201.773C22.4027 206.332 26.3218 209.993 30.829 209.44L89.0937 202.286C93.1043 201.794 95.9502 198.133 95.4554 194.103L93.1509 175.334L23.5215 183.884Z" fill="#E01212"/>
</g>
<path fill-rule="evenodd" clip-rule="evenodd" d="M55.1654 184.119C55.7143 188.59 52.5349 192.659 48.0639 193.208C43.5929 193.757 39.5234 190.578 38.9745 186.107C38.4255 181.636 41.605 177.566 46.0759 177.017C50.5469 176.468 54.6164 179.648 55.1654 184.119Z" fill="#4B4493"/>
<path fill-rule="evenodd" clip-rule="evenodd" d="M52.4466 184.119C52.9956 188.59 49.8157 192.659 45.3452 193.208C40.8742 193.757 36.8047 190.578 36.2557 186.107C35.7067 181.636 38.8862 177.566 43.3572 177.017C47.8277 176.468 51.8977 179.648 52.4466 184.119Z" fill="#092F4C"/>
<path opacity="0.3" fill-rule="evenodd" clip-rule="evenodd" d="M46.3481 177.56C47.5143 178.587 48.3237 180.013 48.5261 181.661C48.9717 185.29 46.3253 188.602 42.6152 189.057C40.0208 189.376 37.5971 188.211 36.219 186.243C36.2208 186.257 36.2205 186.272 36.2223 186.287C36.7593 190.66 40.8191 193.76 45.29 193.211C49.761 192.663 52.9502 188.672 52.4132 184.299C52.0008 180.94 49.5072 178.34 46.3481 177.56Z" fill="#182C31"/>
<mask id="mask3" mask-type="alpha" maskUnits="userSpaceOnUse" x="119" y="1" width="113" height="196">
<path fill-rule="evenodd" clip-rule="evenodd" d="M119.016 12.8081L209.135 1.74294L231.664 185.231L141.546 196.296L119.016 12.8081Z" fill="white"/>
</mask>
<g mask="url(#mask3)">
<path fill-rule="evenodd" clip-rule="evenodd" d="M220.446 93.8638C219.697 87.7614 216.109 82.7406 211.355 80.2277L211.355 80.2256C211.344 80.2206 211.334 80.2159 211.323 80.2103C211.009 80.0452 210.691 79.8886 210.366 79.7456C210.357 79.7408 210.346 79.7374 210.336 79.7331C210.05 79.6075 209.759 79.4932 209.466 79.3855C209.377 79.353 209.287 79.3214 209.197 79.2899C208.945 79.2031 208.692 79.1226 208.435 79.0497C208.372 79.0315 208.309 79.0102 208.245 78.9929C207.941 78.9104 207.635 78.8402 207.326 78.7775C207.211 78.7541 207.095 78.7347 206.979 78.7135C206.753 78.6718 206.526 78.6388 206.297 78.6093C206.207 78.5974 206.117 78.5842 206.026 78.5745C205.707 78.5394 205.386 78.5144 205.063 78.5012C204.991 78.4982 204.917 78.4991 204.845 78.4974C204.578 78.4906 204.309 78.4916 204.039 78.5C203.944 78.5027 203.849 78.5058 203.754 78.5103C203.418 78.5277 203.081 78.5524 202.743 78.594L188.741 80.3132L156.72 84.2448C156.806 83.7164 156.888 83.171 156.967 82.6153C157.01 82.3146 157.051 82.0074 157.091 81.6986C157.13 81.3967 157.168 81.0903 157.205 80.7805C157.242 80.4777 157.278 80.177 157.311 79.8669C157.374 79.2914 157.432 78.7059 157.484 78.1057L157.482 78.106C158.334 68.1632 157.658 54.9093 152.6 39.114C142.822 8.58764 125.076 9.43881 119.25 14.7111C125.961 17.259 133.404 24.6161 138.598 40.8332C144.78 60.142 144.418 75.66 142.718 85.964L143.583 93.0054L195.003 86.6918C200.534 86.0126 205.69 89.8682 206.422 95.4093C206.429 95.4672 206.437 95.5251 206.444 95.583C207.329 102.79 204.004 109.49 198.568 112.737C201.679 115.134 203.928 118.876 204.468 123.274C205.316 130.174 201.715 136.526 196.124 138.923C199.015 141.101 201.105 144.552 201.603 148.605L201.659 149.065C202.416 155.225 199.29 160.915 194.368 163.191C197.587 165.408 199.941 169.11 200.481 173.508L200.644 174.836C201.589 182.535 196.646 189.53 189.665 190.388L203.667 188.668C210.649 187.811 215.591 180.815 214.646 173.117L214.483 171.789C213.943 167.391 211.588 163.689 208.371 161.472C213.292 159.196 216.418 153.505 215.661 147.345L215.605 146.886C215.107 142.832 213.017 139.382 210.126 137.204C215.717 134.806 219.318 128.455 218.471 121.554C217.931 117.156 215.682 113.415 212.57 111.017C218.006 107.771 221.331 101.071 220.446 93.8638Z" fill="#F1AF6F"/>
</g>
<path fill-rule="evenodd" clip-rule="evenodd" d="M43.7473 179.93C44.5213 180.606 44.4048 182.054 43.4868 183.164C42.5685 184.274 41.197 184.627 40.4234 183.951C39.6493 183.275 39.7662 181.828 40.6838 180.718C41.6018 179.607 42.9734 179.255 43.7473 179.93Z" fill="white"/>
</svg>
