<svg width="116" height="34" viewBox="0 0 116 34" fill="none" xmlns="http://www.w3.org/2000/svg">
<rect width="116" height="24" fill="black"/>
<path d="M29.4318 10L27.0918 17H26.0418L24.1318 11.41L22.2218 17H21.1518L18.8118 10H19.8418L21.7318 15.69L23.7018 10H24.6218L26.5518 15.72L28.4818 10H29.4318ZM31.8447 11.65C32.578 11.65 33.138 11.83 33.5247 12.19C33.918 12.55 34.1147 13.0867 34.1147 13.8V17H33.2047V16.3C33.0447 16.5467 32.8147 16.7367 32.5147 16.87C32.2214 16.9967 31.8714 17.06 31.4647 17.06C30.8714 17.06 30.3947 16.9167 30.0347 16.63C29.6814 16.3433 29.5047 15.9667 29.5047 15.5C29.5047 15.0333 29.6747 14.66 30.0147 14.38C30.3547 14.0933 30.8947 13.95 31.6347 13.95H33.1547V13.76C33.1547 13.3467 33.0347 13.03 32.7947 12.81C32.5547 12.59 32.2014 12.48 31.7347 12.48C31.4214 12.48 31.1147 12.5333 30.8147 12.64C30.5147 12.74 30.2614 12.8767 30.0547 13.05L29.6547 12.33C29.928 12.11 30.2547 11.9433 30.6347 11.83C31.0147 11.71 31.418 11.65 31.8447 11.65ZM31.6247 16.32C31.9914 16.32 32.308 16.24 32.5747 16.08C32.8414 15.9133 33.0347 15.68 33.1547 15.38V14.64H31.6747C30.8614 14.64 30.4547 14.9133 30.4547 15.46C30.4547 15.7267 30.558 15.9367 30.7647 16.09C30.9714 16.2433 31.258 16.32 31.6247 16.32ZM38.6713 16.69C38.5313 16.81 38.3579 16.9033 38.1513 16.97C37.9446 17.03 37.7313 17.06 37.5113 17.06C36.9779 17.06 36.5646 16.9167 36.2713 16.63C35.9779 16.3433 35.8313 15.9333 35.8313 15.4V12.49H34.9313V11.7H35.8313V10.54H36.7913V11.7H38.3113V12.49H36.7913V15.36C36.7913 15.6467 36.8613 15.8667 37.0013 16.02C37.1479 16.1733 37.3546 16.25 37.6213 16.25C37.9146 16.25 38.1646 16.1667 38.3713 16L38.6713 16.69ZM41.7661 17.06C41.2261 17.06 40.7428 16.9433 40.3161 16.71C39.8961 16.4767 39.5661 16.1567 39.3261 15.75C39.0861 15.3367 38.9661 14.87 38.9661 14.35C38.9661 13.83 39.0861 13.3667 39.3261 12.96C39.5661 12.5467 39.8961 12.2267 40.3161 12C40.7428 11.7667 41.2261 11.65 41.7661 11.65C42.2461 11.65 42.6728 11.7467 43.0461 11.94C43.4261 12.1333 43.7194 12.4133 43.9261 12.78L43.1961 13.25C43.0294 12.9967 42.8228 12.8067 42.5761 12.68C42.3294 12.5533 42.0561 12.49 41.7561 12.49C41.4094 12.49 41.0961 12.5667 40.8161 12.72C40.5428 12.8733 40.3261 13.0933 40.1661 13.38C40.0128 13.66 39.9361 13.9833 39.9361 14.35C39.9361 14.7233 40.0128 15.0533 40.1661 15.34C40.3261 15.62 40.5428 15.8367 40.8161 15.99C41.0961 16.1433 41.4094 16.22 41.7561 16.22C42.0561 16.22 42.3294 16.1567 42.5761 16.03C42.8228 15.9033 43.0294 15.7133 43.1961 15.46L43.9261 15.92C43.7194 16.2867 43.4261 16.57 43.0461 16.77C42.6728 16.9633 42.2461 17.06 41.7661 17.06ZM47.7306 11.65C48.404 11.65 48.9373 11.8467 49.3306 12.24C49.7306 12.6267 49.9306 13.1967 49.9306 13.95V17H48.9706V14.06C48.9706 13.5467 48.8473 13.16 48.6006 12.9C48.354 12.64 48.0006 12.51 47.5406 12.51C47.0206 12.51 46.6106 12.6633 46.3106 12.97C46.0106 13.27 45.8606 13.7033 45.8606 14.27V17H44.9006V9.58H45.8606V12.45C46.0606 12.1967 46.3206 12 46.6406 11.86C46.9673 11.72 47.3306 11.65 47.7306 11.65ZM60.6228 11.65C61.2895 11.65 61.8161 11.8433 62.2028 12.23C62.5961 12.6167 62.7928 13.19 62.7928 13.95V17H61.8328V14.06C61.8328 13.5467 61.7128 13.16 61.4728 12.9C61.2395 12.64 60.9028 12.51 60.4628 12.51C59.9761 12.51 59.5895 12.6633 59.3028 12.97C59.0161 13.27 58.8728 13.7033 58.8728 14.27V17H57.9128V14.06C57.9128 13.5467 57.7928 13.16 57.5528 12.9C57.3195 12.64 56.9828 12.51 56.5428 12.51C56.0561 12.51 55.6695 12.6633 55.3828 12.97C55.0961 13.27 54.9528 13.7033 54.9528 14.27V17H53.9928V11.7H54.9128V12.49C55.1061 12.2167 55.3595 12.01 55.6728 11.87C55.9861 11.7233 56.3428 11.65 56.7428 11.65C57.1561 11.65 57.5228 11.7333 57.8428 11.9C58.1628 12.0667 58.4095 12.31 58.5828 12.63C58.7828 12.3233 59.0595 12.0833 59.4128 11.91C59.7728 11.7367 60.1761 11.65 60.6228 11.65ZM69.1785 14.38C69.1785 14.4533 69.1718 14.55 69.1585 14.67H64.8585C64.9185 15.1367 65.1218 15.5133 65.4685 15.8C65.8218 16.08 66.2585 16.22 66.7785 16.22C67.4118 16.22 67.9218 16.0067 68.3085 15.58L68.8385 16.2C68.5985 16.48 68.2985 16.6933 67.9385 16.84C67.5852 16.9867 67.1885 17.06 66.7485 17.06C66.1885 17.06 65.6918 16.9467 65.2585 16.72C64.8252 16.4867 64.4885 16.1633 64.2485 15.75C64.0152 15.3367 63.8985 14.87 63.8985 14.35C63.8985 13.8367 64.0118 13.3733 64.2385 12.96C64.4718 12.5467 64.7885 12.2267 65.1885 12C65.5952 11.7667 66.0518 11.65 66.5585 11.65C67.0652 11.65 67.5152 11.7667 67.9085 12C68.3085 12.2267 68.6185 12.5467 68.8385 12.96C69.0652 13.3733 69.1785 13.8467 69.1785 14.38ZM66.5585 12.46C66.0985 12.46 65.7118 12.6 65.3985 12.88C65.0918 13.16 64.9118 13.5267 64.8585 13.98H68.2585C68.2052 13.5333 68.0218 13.17 67.7085 12.89C67.4018 12.6033 67.0185 12.46 66.5585 12.46ZM75.3116 9.58V17H74.3916V16.16C74.1782 16.4533 73.9082 16.6767 73.5816 16.83C73.2549 16.9833 72.8949 17.06 72.5016 17.06C71.9882 17.06 71.5282 16.9467 71.1216 16.72C70.7149 16.4933 70.3949 16.1767 70.1616 15.77C69.9349 15.3567 69.8216 14.8833 69.8216 14.35C69.8216 13.8167 69.9349 13.3467 70.1616 12.94C70.3949 12.5333 70.7149 12.2167 71.1216 11.99C71.5282 11.7633 71.9882 11.65 72.5016 11.65C72.8816 11.65 73.2316 11.7233 73.5516 11.87C73.8716 12.01 74.1382 12.22 74.3516 12.5V9.58H75.3116ZM72.5816 16.22C72.9149 16.22 73.2182 16.1433 73.4916 15.99C73.7649 15.83 73.9782 15.61 74.1316 15.33C74.2849 15.0433 74.3616 14.7167 74.3616 14.35C74.3616 13.9833 74.2849 13.66 74.1316 13.38C73.9782 13.0933 73.7649 12.8733 73.4916 12.72C73.2182 12.5667 72.9149 12.49 72.5816 12.49C72.2416 12.49 71.9349 12.5667 71.6616 12.72C71.3949 12.8733 71.1816 13.0933 71.0216 13.38C70.8682 13.66 70.7916 13.9833 70.7916 14.35C70.7916 14.7167 70.8682 15.0433 71.0216 15.33C71.1816 15.61 71.3949 15.83 71.6616 15.99C71.9349 16.1433 72.2416 16.22 72.5816 16.22ZM76.928 11.7H77.888V17H76.928V11.7ZM77.408 10.68C77.2213 10.68 77.0646 10.62 76.938 10.5C76.818 10.38 76.758 10.2333 76.758 10.06C76.758 9.88667 76.818 9.74 76.938 9.62C77.0646 9.49333 77.2213 9.43 77.408 9.43C77.5946 9.43 77.748 9.49 77.868 9.61C77.9946 9.72333 78.058 9.86667 78.058 10.04C78.058 10.22 77.9946 10.3733 77.868 10.5C77.748 10.62 77.5946 10.68 77.408 10.68ZM81.4509 11.65C82.1843 11.65 82.7443 11.83 83.1309 12.19C83.5243 12.55 83.7209 13.0867 83.7209 13.8V17H82.8109V16.3C82.6509 16.5467 82.4209 16.7367 82.1209 16.87C81.8276 16.9967 81.4776 17.06 81.0709 17.06C80.4776 17.06 80.0009 16.9167 79.6409 16.63C79.2876 16.3433 79.1109 15.9667 79.1109 15.5C79.1109 15.0333 79.2809 14.66 79.6209 14.38C79.9609 14.0933 80.5009 13.95 81.2409 13.95H82.7609V13.76C82.7609 13.3467 82.6409 13.03 82.4009 12.81C82.1609 12.59 81.8076 12.48 81.3409 12.48C81.0276 12.48 80.7209 12.5333 80.4209 12.64C80.1209 12.74 79.8676 12.8767 79.6609 13.05L79.2609 12.33C79.5343 12.11 79.8609 11.9433 80.2409 11.83C80.6209 11.71 81.0243 11.65 81.4509 11.65ZM81.2309 16.32C81.5976 16.32 81.9143 16.24 82.1809 16.08C82.4476 15.9133 82.6409 15.68 82.7609 15.38V14.64H81.2809C80.4676 14.64 80.0609 14.9133 80.0609 15.46C80.0609 15.7267 80.1643 15.9367 80.3709 16.09C80.5776 16.2433 80.8643 16.32 81.2309 16.32ZM89.723 10.31C89.1497 10.31 88.863 10.62 88.863 11.24V11.7H90.403V12.49H88.883V17H87.923V12.49H87.023V11.7H87.923V11.23C87.923 10.7033 88.0764 10.2867 88.383 9.98C88.6897 9.67333 89.1197 9.52 89.673 9.52C89.8864 9.52 90.0864 9.54667 90.273 9.6C90.4597 9.65333 90.6197 9.73 90.753 9.83L90.463 10.56C90.243 10.3933 89.9964 10.31 89.723 10.31ZM92.113 11.7H93.073V17H92.113V11.7ZM92.593 10.68C92.4064 10.68 92.2497 10.62 92.123 10.5C92.003 10.38 91.943 10.2333 91.943 10.06C91.943 9.88667 92.003 9.74 92.123 9.62C92.2497 9.49333 92.4064 9.43 92.593 9.43C92.7797 9.43 92.933 9.49 93.053 9.61C93.1797 9.72333 93.243 9.86667 93.243 10.04C93.243 10.22 93.1797 10.3733 93.053 10.5C92.933 10.62 92.7797 10.68 92.593 10.68ZM94.7022 9.58H95.6622V17H94.7022V9.58ZM102.085 14.38C102.085 14.4533 102.078 14.55 102.065 14.67H97.7652C97.8252 15.1367 98.0285 15.5133 98.3752 15.8C98.7285 16.08 99.1652 16.22 99.6852 16.22C100.318 16.22 100.828 16.0067 101.215 15.58L101.745 16.2C101.505 16.48 101.205 16.6933 100.845 16.84C100.492 16.9867 100.095 17.06 99.6552 17.06C99.0952 17.06 98.5985 16.9467 98.1652 16.72C97.7318 16.4867 97.3952 16.1633 97.1552 15.75C96.9218 15.3367 96.8052 14.87 96.8052 14.35C96.8052 13.8367 96.9185 13.3733 97.1452 12.96C97.3785 12.5467 97.6952 12.2267 98.0952 12C98.5018 11.7667 98.9585 11.65 99.4652 11.65C99.9718 11.65 100.422 11.7667 100.815 12C101.215 12.2267 101.525 12.5467 101.745 12.96C101.972 13.3733 102.085 13.8467 102.085 14.38ZM99.4652 12.46C99.0052 12.46 98.6185 12.6 98.3052 12.88C97.9985 13.16 97.8185 13.5267 97.7652 13.98H101.165C101.112 13.5333 100.928 13.17 100.615 12.89C100.308 12.6033 99.9252 12.46 99.4652 12.46Z" fill="white"/>
<path d="M35.4615 18.3008L28.0802 30.5633L21.1512 18.0396L35.4615 18.3008Z" fill="black"/>
</svg>
